<svg id="svg" version="1.1" xmlns="http://www.w3.org/2000/svg" xmlns:xlink="http://www.w3.org/1999/xlink" width="400" height="400" viewBox="0, 0, 400,400"><g id="svgg"><path id="path0" d="M21.200 181.603 C 21.200 181.821,20.840 182.000,20.400 182.000 C 19.960 182.000,19.600 182.180,19.600 182.400 C 19.600 182.620,19.221 182.800,18.757 182.800 C 18.206 182.800,17.987 182.990,18.126 183.351 C 18.399 184.063,17.663 184.799,16.951 184.526 C 16.590 184.387,16.400 184.606,16.400 185.157 C 16.400 185.621,16.220 186.000,16.000 186.000 C 15.780 186.000,15.600 186.360,15.600 186.800 C 15.600 187.240,15.420 187.600,15.200 187.600 C 14.963 187.600,14.800 189.059,14.800 191.176 C 14.800 193.143,14.980 194.864,15.200 195.000 C 15.420 195.136,15.600 195.568,15.600 195.960 C 15.600 196.867,18.911 200.400,19.760 200.400 C 20.112 200.400,20.400 200.580,20.400 200.800 C 20.400 201.020,21.289 201.200,22.376 201.200 C 23.463 201.200,24.464 201.380,24.600 201.600 C 24.752 201.845,27.975 202.000,32.935 202.000 C 40.565 202.000,41.056 202.045,41.600 202.800 C 41.917 203.240,42.363 203.600,42.591 203.600 C 43.420 203.600,42.764 207.272,41.755 208.282 C 41.230 208.807,40.800 209.408,40.800 209.618 C 40.800 209.828,40.519 210.000,40.176 210.000 C 39.833 210.000,39.664 209.820,39.800 209.600 C 39.936 209.380,39.767 209.200,39.424 209.200 C 39.081 209.200,38.800 209.380,38.800 209.600 C 38.800 209.851,36.267 210.000,32.000 210.000 C 27.733 210.000,25.200 209.851,25.200 209.600 C 25.200 209.380,24.748 209.200,24.196 209.200 C 22.774 209.200,20.770 207.200,21.065 206.074 C 21.327 205.073,18.689 204.725,18.233 205.700 C 18.047 206.100,17.953 206.100,17.767 205.700 C 17.638 205.425,16.918 205.200,16.167 205.200 C 14.466 205.200,14.043 208.478,15.600 209.600 C 16.070 209.939,16.400 210.635,16.400 211.288 C 16.400 212.133,16.592 212.400,17.200 212.400 C 17.661 212.400,18.000 212.667,18.000 213.029 C 18.000 213.837,18.963 214.800,19.771 214.800 C 20.117 214.800,20.400 214.980,20.400 215.200 C 20.400 215.457,24.533 215.600,32.000 215.600 C 39.467 215.600,43.600 215.457,43.600 215.200 C 43.600 214.980,43.883 214.800,44.229 214.800 C 45.037 214.800,46.000 213.837,46.000 213.029 C 46.000 212.683,46.283 212.400,46.629 212.400 C 47.437 212.400,48.400 211.437,48.400 210.629 C 48.400 210.283,48.580 210.000,48.800 210.000 C 49.020 210.000,49.200 209.730,49.200 209.400 C 49.200 209.070,48.984 208.800,48.720 208.800 C 48.347 208.800,48.347 208.693,48.720 208.320 C 49.298 207.742,49.369 203.200,48.800 203.200 C 48.580 203.200,48.400 202.919,48.400 202.576 C 48.400 202.233,48.580 202.064,48.800 202.200 C 49.020 202.336,49.200 202.167,49.200 201.824 C 49.200 201.481,48.941 201.200,48.624 201.200 C 48.307 201.200,47.919 200.992,47.762 200.738 C 47.585 200.452,47.652 200.385,47.938 200.562 C 49.043 201.245,48.251 199.830,46.611 198.189 C 44.970 196.549,43.555 195.757,44.238 196.862 C 44.415 197.148,44.348 197.215,44.062 197.038 C 43.808 196.881,43.600 196.493,43.600 196.176 C 43.600 195.739,43.023 195.600,41.200 195.600 C 39.867 195.600,38.800 195.778,38.800 196.000 C 38.800 196.880,26.067 196.497,25.507 195.600 C 25.232 195.160,24.593 194.800,24.086 194.800 C 21.471 194.800,20.180 190.584,22.182 188.582 L 23.164 187.600 32.000 187.600 L 40.836 187.600 41.818 188.582 C 42.358 189.122,42.806 189.887,42.813 190.282 C 42.841 191.879,43.758 192.400,46.544 192.400 L 49.200 192.400 49.200 190.038 C 49.200 187.171,47.872 184.235,46.713 184.539 C 46.182 184.677,46.000 184.491,46.000 183.808 C 46.000 181.785,44.136 181.452,32.100 181.323 C 25.076 181.247,21.200 181.347,21.200 181.603 M58.000 181.600 C 58.000 181.820,57.725 182.000,57.389 182.000 C 56.596 182.000,53.200 185.396,53.200 186.189 C 53.200 186.525,53.020 186.800,52.800 186.800 C 52.580 186.800,52.400 187.149,52.400 187.576 C 52.400 188.003,52.220 188.464,52.000 188.600 C 51.751 188.754,51.600 192.537,51.600 198.624 C 51.600 204.875,51.744 208.400,52.000 208.400 C 52.220 208.400,52.400 208.900,52.400 209.512 C 52.400 210.165,52.730 210.861,53.200 211.200 C 53.640 211.517,54.000 211.997,54.000 212.266 C 54.000 212.535,54.540 213.074,55.200 213.464 C 55.860 213.854,56.400 214.314,56.400 214.486 C 56.400 214.659,56.760 214.800,57.200 214.800 C 57.640 214.800,58.000 214.970,58.000 215.178 C 58.000 215.405,62.463 215.568,69.200 215.587 C 76.597 215.609,80.400 215.480,80.400 215.210 C 80.400 214.984,80.760 214.800,81.200 214.800 C 81.640 214.800,82.000 214.620,82.000 214.400 C 82.000 214.180,82.294 214.000,82.653 214.000 C 83.384 214.000,85.199 212.075,85.200 211.300 C 85.200 211.025,85.380 210.800,85.600 210.800 C 85.820 210.800,86.000 210.260,86.000 209.600 C 86.000 208.940,86.164 208.400,86.364 208.400 C 86.876 208.400,86.796 191.938,86.281 191.283 C 86.001 190.928,86.019 190.621,86.337 190.303 C 86.853 189.787,86.969 188.400,86.496 188.400 C 86.329 188.400,85.956 188.021,85.667 187.558 C 85.378 187.095,85.334 186.836,85.570 186.982 C 85.807 187.128,86.000 187.044,86.000 186.795 C 86.000 186.233,84.997 185.200,84.452 185.200 C 84.229 185.200,83.919 184.992,83.762 184.738 C 83.585 184.452,83.652 184.385,83.938 184.562 C 84.192 184.719,84.400 184.651,84.400 184.411 C 84.400 184.171,84.085 183.858,83.700 183.715 C 83.315 183.572,82.709 183.128,82.353 182.728 C 81.997 182.327,81.412 182.000,81.053 182.000 C 80.694 182.000,80.400 181.865,80.400 181.700 C 80.399 181.229,60.090 181.130,59.800 181.600 C 59.664 181.820,59.373 182.000,59.153 182.000 C 58.933 182.000,58.864 181.820,59.000 181.600 C 59.136 181.380,58.967 181.200,58.624 181.200 C 58.281 181.200,58.000 181.380,58.000 181.600 M90.000 198.400 L 90.000 215.600 107.200 215.600 L 124.400 215.600 124.400 212.800 C 124.400 209.922,124.028 209.380,122.821 210.500 C 122.390 210.900,122.339 210.900,122.565 210.500 C 122.788 210.104,120.006 210.000,109.224 210.000 L 95.600 210.000 95.538 197.700 C 95.504 190.935,95.513 184.979,95.559 184.464 C 95.609 183.895,95.476 183.629,95.221 183.787 C 94.989 183.930,94.800 183.885,94.800 183.686 C 94.800 182.618,92.910 181.200,91.487 181.200 L 90.000 181.200 90.000 198.400 M130.800 181.600 C 130.800 181.820,130.440 182.000,130.000 182.000 C 129.560 182.000,129.200 182.180,129.200 182.400 C 129.200 182.620,128.922 182.800,128.582 182.800 C 128.242 182.800,127.522 183.242,126.982 183.782 C 126.442 184.322,126.000 185.042,126.000 185.382 C 126.000 185.722,125.820 186.000,125.600 186.000 C 125.380 186.000,125.200 186.360,125.200 186.800 C 125.200 187.240,125.016 187.600,124.790 187.600 C 124.520 187.600,124.391 191.272,124.413 198.400 C 124.433 204.872,124.597 209.200,124.823 209.200 C 125.030 209.200,125.200 209.621,125.200 210.136 C 125.200 211.226,128.389 214.800,129.360 214.800 C 129.712 214.800,130.000 214.980,130.000 215.200 C 130.000 215.457,134.133 215.600,141.600 215.600 C 149.067 215.600,153.200 215.457,153.200 215.200 C 153.200 214.980,153.475 214.800,153.811 214.800 C 154.724 214.800,158.108 211.259,157.846 210.577 C 157.711 210.223,157.872 210.000,158.262 210.000 C 158.789 210.000,158.868 209.623,158.719 207.823 C 158.600 206.396,158.687 205.673,158.969 205.723 C 159.552 205.827,159.785 192.025,159.210 191.450 C 158.984 191.224,158.800 190.086,158.800 188.920 C 158.800 187.341,158.653 186.800,158.224 186.800 C 157.907 186.800,157.519 186.592,157.362 186.338 C 157.185 186.052,157.252 185.985,157.538 186.162 C 158.447 186.723,157.976 185.731,156.646 184.278 C 155.390 182.906,154.430 182.278,155.000 183.200 C 155.136 183.420,155.057 183.600,154.824 183.600 C 154.591 183.600,154.400 183.343,154.400 183.029 C 154.400 182.715,153.857 182.188,153.193 181.857 C 152.530 181.525,152.090 181.422,152.217 181.627 C 152.344 181.832,152.167 182.000,151.824 182.000 C 151.481 182.000,151.200 181.820,151.200 181.600 C 151.200 181.380,150.930 181.200,150.600 181.200 C 150.270 181.200,150.000 181.341,150.000 181.514 C 150.000 181.973,148.247 181.919,147.930 181.450 C 147.758 181.195,147.441 181.234,147.049 181.559 C 146.570 181.957,145.829 181.973,143.642 181.634 C 140.077 181.081,130.800 181.056,130.800 181.600 M150.400 187.182 C 150.400 187.392,150.850 188.014,151.400 188.564 C 151.950 189.114,152.400 189.921,152.400 190.358 C 152.400 190.795,152.580 191.264,152.800 191.400 C 153.041 191.549,153.200 194.330,153.200 198.400 C 153.200 202.470,153.041 205.251,152.800 205.400 C 152.580 205.536,152.400 206.005,152.400 206.442 C 152.400 207.562,150.629 209.200,149.418 209.200 C 148.858 209.200,148.400 209.380,148.400 209.600 C 148.400 209.851,145.867 210.000,141.600 210.000 C 137.333 210.000,134.800 209.851,134.800 209.600 C 134.800 209.380,134.342 209.200,133.782 209.200 C 133.222 209.200,132.322 208.758,131.782 208.218 L 130.800 207.236 130.800 198.400 L 130.800 189.564 131.782 188.582 C 132.762 187.602,132.777 187.600,141.182 187.600 C 146.527 187.600,149.600 187.454,149.600 187.200 C 149.600 186.980,149.780 186.800,150.000 186.800 C 150.220 186.800,150.400 186.972,150.400 187.182 M78.000 188.000 C 78.000 188.220,78.360 188.400,78.800 188.400 C 79.324 188.400,79.600 188.667,79.600 189.173 C 79.600 189.598,79.960 190.060,80.400 190.200 C 81.330 190.495,81.674 204.060,80.765 204.622 C 80.452 204.815,80.452 205.012,80.765 205.325 C 81.004 205.564,81.197 205.949,81.194 206.180 C 81.191 206.411,81.013 206.330,80.800 206.000 C 80.469 205.487,80.411 205.502,80.406 206.100 C 80.403 206.485,80.220 206.800,80.000 206.800 C 79.780 206.800,79.600 207.239,79.600 207.776 C 79.600 208.313,79.392 208.881,79.138 209.038 C 78.829 209.229,78.782 209.138,78.997 208.762 C 79.256 208.307,79.214 208.296,78.779 208.700 C 78.482 208.975,77.826 209.200,77.320 209.200 C 76.814 209.200,76.400 209.380,76.400 209.600 C 76.400 209.851,73.875 210.000,69.624 210.000 C 65.537 210.000,62.749 209.841,62.600 209.600 C 62.464 209.380,61.985 209.200,61.536 209.200 C 61.087 209.200,60.108 208.588,59.360 207.840 L 58.000 206.480 58.000 198.429 L 58.000 190.377 59.300 189.016 L 60.600 187.655 69.300 187.627 C 74.852 187.610,78.000 187.745,78.000 188.000 M293.367 205.600 C 293.367 209.890,293.426 211.645,293.498 209.500 C 293.570 207.355,293.570 203.845,293.498 201.700 C 293.426 199.555,293.367 201.310,293.367 205.600 M162.000 212.800 L 162.000 215.600 165.200 215.600 C 167.186 215.600,168.400 215.439,168.400 215.176 C 168.400 214.943,168.235 214.855,168.032 214.980 C 167.830 215.105,167.539 214.036,167.386 212.604 L 167.107 210.000 164.553 210.000 L 162.000 210.000 162.000 212.800 M243.067 213.467 C 242.705 213.828,242.728 215.108,243.100 215.338 C 243.265 215.440,243.400 215.001,243.400 214.362 C 243.400 213.723,243.385 213.200,243.367 213.200 C 243.348 213.200,243.213 213.320,243.067 213.467 " stroke="none" fill="#040404" fill-rule="evenodd"></path><path id="path1" d="M272.400 183.667 C 272.400 184.143,272.451 184.458,272.513 184.367 C 272.575 184.275,272.867 183.885,273.162 183.500 C 273.621 182.901,273.604 182.800,273.049 182.800 C 272.650 182.800,272.400 183.134,272.400 183.667 M206.000 185.200 C 206.000 186.080,206.155 186.800,206.345 186.800 C 206.535 186.800,206.691 186.080,206.691 185.200 C 206.691 184.320,206.535 183.600,206.345 183.600 C 206.155 183.600,206.000 184.320,206.000 185.200 M272.100 185.065 C 271.503 185.306,271.366 198.800,271.960 198.800 C 272.158 198.800,272.341 195.927,272.367 192.415 C 272.392 188.904,272.520 185.754,272.649 185.415 C 272.900 184.762,272.880 184.750,272.100 185.065 M293.467 187.867 C 293.012 188.321,293.155 191.675,293.617 191.390 C 293.931 191.196,294.097 187.600,293.792 187.600 C 293.760 187.600,293.613 187.720,293.467 187.867 M201.700 192.276 C 202.085 192.376,202.715 192.376,203.100 192.276 C 203.485 192.175,203.170 192.093,202.400 192.093 C 201.630 192.093,201.315 192.175,201.700 192.276 M243.600 196.633 C 243.600 197.340,244.461 197.217,244.708 196.475 C 244.795 196.214,244.582 196.000,244.233 196.000 C 243.885 196.000,243.600 196.285,243.600 196.633 M188.307 201.090 C 189.026 201.179,190.106 201.177,190.707 201.086 C 191.308 200.995,190.720 200.922,189.400 200.924 C 188.080 200.926,187.588 201.001,188.307 201.090 M272.179 203.566 C 272.303 203.767,272.179 204.015,271.902 204.116 C 271.512 204.259,271.524 204.422,271.959 204.850 C 272.266 205.153,272.398 205.187,272.252 204.928 C 272.106 204.668,272.170 204.342,272.393 204.204 C 272.928 203.874,272.916 203.200,272.376 203.200 C 272.143 203.200,272.055 203.365,272.179 203.566 " stroke="none" fill="#f77c04" fill-rule="evenodd"></path><path id="path2" d="M33.700 181.491 C 34.525 181.578,35.875 181.578,36.700 181.491 C 37.525 181.405,36.850 181.334,35.200 181.334 C 33.550 181.334,32.875 181.405,33.700 181.491 M72.311 181.493 C 73.251 181.578,74.691 181.577,75.511 181.491 C 76.330 181.405,75.560 181.336,73.800 181.337 C 72.040 181.339,71.370 181.409,72.311 181.493 M93.455 181.800 C 93.582 182.130,93.834 182.400,94.016 182.400 C 94.197 182.400,94.461 182.763,94.602 183.206 C 94.743 183.649,95.025 183.908,95.229 183.782 C 95.780 183.442,95.678 182.421,95.029 181.771 C 94.260 181.003,93.157 181.023,93.455 181.800 M144.154 181.675 C 145.767 181.934,146.642 181.918,146.934 181.626 C 147.235 181.325,146.547 181.214,144.580 181.248 L 141.800 181.297 144.154 181.675 M148.000 181.558 C 148.000 181.754,148.450 181.889,149.000 181.858 C 150.303 181.782,150.303 181.200,149.000 181.200 C 148.450 181.200,148.000 181.361,148.000 181.558 M86.178 190.435 C 86.031 190.674,86.110 191.070,86.355 191.315 C 86.682 191.642,86.800 191.526,86.800 190.880 C 86.800 189.914,86.592 189.765,86.178 190.435 M80.400 197.624 C 80.400 202.337,80.539 204.761,80.800 204.600 C 81.042 204.450,81.200 201.596,81.200 197.376 C 81.200 192.992,81.051 190.400,80.800 190.400 C 80.548 190.400,80.400 193.075,80.400 197.624 M25.800 196.000 C 25.948 196.240,28.604 196.400,32.424 196.400 C 36.408 196.400,38.800 196.250,38.800 196.000 C 38.800 195.749,36.325 195.600,32.176 195.600 C 27.863 195.600,25.639 195.739,25.800 196.000 M86.509 197.200 C 86.509 198.190,86.587 198.595,86.682 198.100 C 86.778 197.605,86.778 196.795,86.682 196.300 C 86.587 195.805,86.509 196.210,86.509 197.200 M167.223 211.067 C 167.236 211.690,167.388 212.920,167.562 213.800 C 167.978 215.910,168.494 214.813,168.324 212.180 C 168.190 210.103,167.183 209.084,167.223 211.067 " stroke="none" fill="#0c0c0c" fill-rule="evenodd"></path><path id="path3" d="M179.600 181.757 C 179.600 182.063,179.168 182.422,178.641 182.554 C 177.828 182.758,176.636 183.594,173.700 186.019 C 173.425 186.246,173.200 186.930,173.200 187.539 C 173.200 188.149,172.936 188.996,172.613 189.424 C 171.956 190.292,171.798 192.628,172.373 192.983 C 172.578 193.110,172.958 194.163,173.218 195.323 C 173.629 197.159,173.823 197.444,174.717 197.518 C 175.954 197.620,177.030 198.291,178.807 200.068 C 180.127 201.388,180.170 201.399,183.470 201.291 C 185.542 201.223,186.800 201.337,186.800 201.591 C 186.800 201.849,188.383 201.969,191.100 201.916 L 195.400 201.831 191.300 201.702 C 189.045 201.630,187.200 201.400,187.200 201.189 C 187.200 200.723,197.211 200.999,197.561 201.475 C 197.692 201.654,198.070 201.858,198.400 201.930 C 200.602 202.407,201.977 207.572,200.064 208.180 C 199.659 208.308,199.081 208.875,198.779 209.440 C 198.316 210.305,198.039 210.427,197.015 210.219 C 195.401 209.890,180.900 209.891,180.368 210.220 C 179.145 210.976,176.184 208.008,177.133 206.978 C 177.280 206.818,176.900 206.807,176.290 206.954 C 175.259 207.201,175.198 207.148,175.433 206.210 C 175.662 205.297,175.571 205.200,174.479 205.200 C 173.278 205.200,173.270 205.215,173.136 207.700 C 173.004 210.131,173.608 211.600,174.741 211.600 C 174.928 211.600,175.641 212.135,176.325 212.788 C 177.009 213.442,178.026 214.092,178.584 214.232 C 179.143 214.372,179.600 214.737,179.600 215.043 C 179.600 215.906,196.324 215.863,196.655 215.000 C 196.784 214.664,197.380 214.400,198.010 214.400 C 199.614 214.400,200.384 214.023,200.130 213.362 C 199.991 212.999,200.109 212.861,200.455 212.984 C 201.227 213.258,202.101 212.466,203.199 210.500 C 203.720 209.565,204.375 208.800,204.653 208.800 C 205.047 208.800,205.031 208.492,204.580 207.413 C 204.261 206.650,204.000 205.359,204.000 204.544 C 204.000 203.723,203.703 202.735,203.333 202.326 C 202.967 201.921,202.618 201.129,202.557 200.565 C 202.403 199.112,201.925 198.675,199.571 197.828 C 198.295 197.370,197.419 196.796,197.300 196.341 C 197.119 195.647,196.523 195.600,187.830 195.600 L 178.554 195.600 177.920 194.100 C 175.125 187.480,176.241 186.709,188.584 186.731 C 198.272 186.748,199.816 186.976,198.773 188.233 C 198.427 188.649,198.572 188.743,199.468 188.680 C 200.504 188.607,200.610 188.727,200.724 190.100 C 200.840 191.501,200.935 191.600,202.150 191.600 C 206.651 191.600,203.356 183.466,198.484 182.552 C 197.743 182.413,197.041 182.052,196.925 181.749 C 196.611 180.931,179.600 180.938,179.600 181.757 M235.781 182.560 C 235.641 183.308,235.611 184.823,235.715 185.928 C 235.911 188.023,235.545 188.800,234.359 188.800 C 233.962 188.800,233.504 189.300,233.260 190.000 C 232.978 190.808,232.573 191.200,232.021 191.200 C 231.417 191.200,231.200 191.458,231.200 192.177 C 231.200 192.866,230.543 193.721,228.971 195.077 C 227.746 196.135,226.381 197.585,225.939 198.300 C 225.497 199.015,224.869 199.600,224.544 199.600 C 224.216 199.600,224.074 199.404,224.225 199.160 C 224.404 198.870,224.191 198.884,223.597 199.201 C 222.648 199.709,222.020 199.258,222.006 198.060 C 222.000 197.484,219.741 195.200,219.177 195.200 C 218.621 195.200,214.145 190.564,214.288 190.135 C 214.507 189.480,213.337 187.055,213.036 187.541 C 212.606 188.238,211.200 187.160,211.200 186.132 C 211.200 185.651,211.470 184.987,211.800 184.657 C 213.261 183.196,211.971 182.287,208.355 182.229 L 206.510 182.200 206.621 184.000 C 206.681 184.990,206.746 186.256,206.765 186.814 C 206.789 187.495,207.194 188.060,208.000 188.536 C 208.901 189.069,209.200 189.539,209.200 190.423 C 209.200 191.206,209.402 191.600,209.804 191.600 C 210.505 191.600,212.317 193.303,213.342 194.927 C 213.918 195.838,214.163 195.963,214.627 195.578 C 214.985 195.281,215.200 195.258,215.200 195.518 C 215.200 195.746,214.994 196.002,214.743 196.086 C 214.204 196.265,214.980 198.000,215.599 198.000 C 215.803 198.000,217.143 199.215,218.578 200.700 C 221.476 203.699,221.391 203.380,221.266 210.860 C 221.234 212.758,221.390 213.659,221.810 214.009 C 222.135 214.278,222.400 214.746,222.400 215.049 C 222.400 215.737,223.861 215.780,224.135 215.100 C 224.296 214.700,224.343 214.700,224.368 215.100 C 224.418 215.892,225.086 215.681,225.316 214.800 C 225.431 214.360,225.781 214.000,226.094 214.000 C 226.867 214.000,227.055 209.791,226.322 208.902 C 225.909 208.402,225.905 208.235,226.300 208.102 C 226.619 207.994,226.800 207.136,226.800 205.731 C 226.800 203.639,226.896 203.431,228.700 201.606 C 234.343 195.896,236.000 194.082,236.000 193.609 C 236.000 192.832,238.377 190.705,238.984 190.939 C 239.341 191.075,239.445 190.893,239.308 190.371 C 239.079 189.494,240.251 187.461,240.793 187.795 C 240.989 187.917,241.150 186.839,241.150 185.400 C 241.150 183.961,240.996 182.879,240.807 182.996 C 240.618 183.112,240.109 182.756,239.674 182.204 C 238.383 180.562,236.117 180.769,235.781 182.560 M245.323 183.862 C 245.576 185.622,245.567 187.132,245.296 188.316 C 245.059 189.355,245.026 190.594,245.220 191.268 C 245.431 192.004,245.366 193.049,245.044 194.119 C 244.765 195.048,244.610 196.031,244.701 196.304 C 244.792 196.577,244.582 196.909,244.233 197.043 C 243.297 197.402,243.288 205.600,244.224 205.600 C 244.567 205.600,244.734 205.783,244.596 206.007 C 244.458 206.230,244.177 206.309,243.972 206.183 C 243.768 206.056,243.600 206.503,243.600 207.176 C 243.600 207.849,243.780 208.400,244.000 208.400 C 244.220 208.400,244.400 208.591,244.400 208.824 C 244.400 209.057,244.205 209.126,243.966 208.979 C 243.663 208.791,243.572 209.727,243.666 212.075 C 243.796 215.338,243.830 215.443,244.800 215.516 C 245.580 215.575,245.668 215.506,245.200 215.202 C 244.728 214.895,244.823 214.811,245.650 214.806 C 248.527 214.789,249.200 214.400,249.200 212.750 C 249.200 211.780,249.013 211.198,248.700 211.194 C 248.367 211.190,248.400 211.058,248.800 210.800 C 249.325 210.461,249.321 210.411,248.764 210.406 C 247.660 210.395,247.095 208.532,247.847 207.384 C 248.202 206.843,248.651 206.400,248.846 206.400 C 249.041 206.400,249.200 203.160,249.200 199.200 C 249.200 193.727,249.082 192.024,248.709 192.100 C 248.440 192.155,248.157 191.795,248.082 191.300 C 247.980 190.631,248.142 190.400,248.712 190.400 C 250.093 190.400,252.000 191.265,252.000 191.891 C 252.000 192.452,253.878 194.643,257.041 197.772 C 257.723 198.448,258.836 199.299,259.513 199.665 C 260.777 200.349,261.891 202.051,262.139 203.679 C 262.216 204.185,262.608 204.664,263.010 204.743 C 264.896 205.112,271.753 213.145,271.679 214.900 C 271.654 215.492,272.019 215.600,274.048 215.600 C 275.532 215.600,276.354 215.449,276.202 215.203 C 276.067 214.985,276.417 214.347,276.978 213.785 C 278.236 212.528,278.416 209.812,277.300 208.944 C 276.638 208.430,276.638 208.371,277.289 207.864 C 277.914 207.378,277.979 206.185,277.988 194.999 C 277.993 188.218,277.885 182.782,277.748 182.919 C 277.376 183.291,275.137 182.026,275.403 181.595 C 275.530 181.390,275.034 181.246,274.302 181.273 C 273.119 181.318,272.141 182.800,273.295 182.800 C 273.473 182.800,273.350 183.210,273.022 183.711 C 272.533 184.456,272.428 186.365,272.440 194.211 C 272.448 199.485,272.421 203.980,272.380 204.200 C 272.339 204.420,272.340 204.775,272.382 204.989 C 272.425 205.203,272.078 205.033,271.612 204.611 C 270.829 203.902,270.786 203.899,271.043 204.569 C 271.400 205.498,269.623 205.080,269.000 204.088 C 268.780 203.738,268.222 203.080,267.761 202.626 C 267.299 202.172,266.708 201.395,266.447 200.900 C 266.186 200.405,265.753 199.999,265.486 199.998 C 265.219 199.997,264.370 199.239,263.600 198.313 C 262.830 197.388,261.480 195.894,260.600 194.994 C 258.197 192.536,257.521 191.582,257.754 190.975 C 257.870 190.673,257.765 190.302,257.521 190.151 C 257.252 189.985,257.189 190.059,257.362 190.338 C 258.207 191.706,256.461 190.399,253.434 187.400 C 251.548 185.530,249.851 184.000,249.664 184.000 C 249.104 184.000,248.000 182.586,248.000 181.869 C 248.000 181.360,247.633 181.200,246.470 181.200 L 244.941 181.200 245.323 183.862 M280.806 183.300 C 280.816 186.582,280.706 186.528,287.656 186.684 C 294.669 186.842,295.587 187.142,295.289 189.178 C 295.188 189.862,294.762 190.606,294.342 190.831 C 293.921 191.056,293.681 191.408,293.808 191.612 C 293.934 191.817,294.120 195.183,294.220 199.092 C 294.320 203.002,294.612 206.878,294.868 207.707 C 295.280 209.044,295.246 209.279,294.566 209.783 C 293.915 210.266,293.875 210.474,294.300 211.170 C 294.902 212.156,294.959 214.254,294.393 214.604 C 293.653 215.062,294.426 215.600,295.824 215.600 C 296.744 215.600,297.200 215.412,297.200 215.033 C 297.200 214.722,297.412 214.396,297.672 214.309 C 298.549 214.017,299.188 194.678,298.452 190.696 C 297.958 188.026,298.191 187.052,299.256 187.330 C 299.666 187.438,299.907 187.374,299.793 187.189 C 299.488 186.695,301.757 186.563,305.400 186.864 C 310.354 187.272,312.800 186.912,312.800 185.773 C 312.800 185.270,313.083 184.574,313.429 184.229 C 313.774 183.883,313.886 183.600,313.677 183.600 C 313.468 183.600,313.073 183.060,312.800 182.400 L 312.303 181.200 296.551 181.200 L 280.800 181.200 280.806 183.300 M323.348 181.792 C 323.100 182.438,320.636 183.266,319.855 182.966 C 319.180 182.707,317.040 185.018,317.406 185.610 C 317.612 185.943,317.459 186.009,316.897 185.831 C 315.727 185.460,315.710 185.622,315.757 196.661 C 315.781 202.194,315.665 206.639,315.500 206.537 C 315.224 206.367,315.040 206.984,315.153 207.700 C 315.179 207.865,314.945 208.000,314.633 208.000 C 314.228 208.000,314.067 208.514,314.067 209.800 C 314.067 211.086,314.228 211.600,314.633 211.600 C 315.047 211.600,315.200 212.144,315.200 213.621 L 315.200 215.642 317.300 215.521 L 319.400 215.400 319.464 213.000 C 319.499 211.680,319.574 209.579,319.631 208.331 L 319.734 206.062 331.267 206.131 C 341.200 206.190,342.806 206.283,342.841 206.800 C 342.864 207.130,342.850 208.765,342.809 210.433 C 342.740 213.299,342.793 213.504,343.781 214.151 C 344.355 214.527,344.719 215.007,344.589 215.218 C 344.456 215.433,344.973 215.600,345.776 215.600 C 346.775 215.600,347.200 215.421,347.200 215.000 C 347.200 214.670,347.452 214.400,347.761 214.400 C 348.228 214.400,348.330 212.400,348.376 202.400 C 348.426 191.513,348.370 190.400,347.773 190.400 C 347.248 190.400,347.147 190.079,347.269 188.800 C 347.352 187.920,347.253 187.200,347.048 187.200 C 346.379 187.200,343.540 184.021,343.814 183.578 C 343.963 183.337,343.709 183.049,343.240 182.926 C 342.778 182.806,342.400 182.573,342.400 182.409 C 342.400 182.245,341.973 182.193,341.451 182.292 C 340.930 182.392,339.949 182.187,339.271 181.837 C 337.513 180.928,323.694 180.889,323.348 181.792 M352.423 183.838 C 351.737 187.775,352.177 188.713,355.813 191.073 C 357.445 192.133,358.876 193.270,358.992 193.600 C 359.107 193.930,359.937 194.552,360.836 194.981 C 364.887 196.919,364.894 199.913,360.852 201.705 C 359.891 202.131,359.025 202.777,358.929 203.140 C 358.737 203.864,355.124 206.400,354.285 206.400 C 353.312 206.400,352.800 207.350,352.800 209.152 C 352.800 210.137,352.586 211.535,352.325 212.257 C 351.679 214.044,352.468 215.600,354.019 215.600 C 355.136 215.600,355.615 214.866,356.175 212.300 C 356.307 211.695,356.592 211.200,356.808 211.200 C 357.023 211.200,357.200 211.007,357.200 210.771 C 357.200 210.536,357.425 210.115,357.700 209.837 C 357.975 209.559,358.900 208.554,359.756 207.603 C 360.611 206.652,361.995 205.498,362.832 205.037 C 363.668 204.577,365.038 203.716,365.876 203.125 C 368.337 201.389,369.169 201.367,370.922 202.990 C 371.760 203.766,372.665 204.400,372.935 204.400 C 373.205 204.400,374.230 205.190,375.213 206.155 C 376.196 207.120,377.814 208.291,378.809 208.756 C 380.561 209.576,381.749 211.879,382.082 215.100 C 382.158 215.841,382.690 215.710,383.700 214.700 C 385.177 213.224,385.154 208.140,383.667 207.476 C 383.080 207.214,381.953 206.325,381.162 205.500 C 380.371 204.675,379.398 204.000,379.000 204.000 C 378.602 204.000,377.591 203.280,376.754 202.400 C 375.917 201.520,374.868 200.800,374.424 200.800 C 373.410 200.800,372.803 198.897,373.646 198.363 C 374.084 198.085,374.090 198.011,373.672 198.006 C 372.622 197.994,373.333 196.208,374.439 196.079 C 375.010 196.013,376.172 195.248,377.020 194.379 C 377.868 193.511,378.802 192.800,379.095 192.800 C 379.814 192.800,381.148 191.894,383.142 190.053 L 384.800 188.523 384.800 185.424 C 384.800 182.620,384.721 182.304,383.966 182.107 C 383.332 181.941,383.260 181.808,383.666 181.551 C 384.036 181.316,383.877 181.210,383.147 181.206 C 382.069 181.200,381.501 182.417,380.817 186.200 C 380.645 187.153,380.191 187.602,378.614 188.384 C 377.522 188.925,376.125 189.941,375.510 190.641 C 374.895 191.342,373.898 192.036,373.296 192.184 C 372.693 192.332,371.540 193.206,370.734 194.126 C 369.583 195.441,369.162 195.697,368.773 195.319 C 368.432 194.987,368.051 194.959,367.548 195.228 C 366.968 195.538,366.866 195.493,367.052 195.009 C 367.180 194.674,367.079 194.400,366.826 194.400 C 366.573 194.400,365.362 193.635,364.135 192.700 C 362.908 191.765,361.540 190.791,361.095 190.535 C 360.651 190.279,359.855 189.604,359.327 189.035 C 358.799 188.466,358.118 188.000,357.812 188.000 C 356.783 188.000,356.000 186.771,356.000 185.155 C 356.000 181.016,353.100 179.948,352.423 183.838 M324.800 186.156 C 324.800 186.461,325.025 186.703,325.300 186.693 C 329.428 186.539,337.597 186.882,337.400 187.200 C 337.264 187.420,337.328 187.600,337.543 187.600 C 337.758 187.600,338.000 187.399,338.082 187.153 C 338.479 185.962,341.284 186.563,342.029 188.000 C 343.031 189.932,343.375 199.343,342.493 200.700 C 341.822 201.733,340.881 201.878,340.545 201.000 C 340.348 200.488,338.795 200.400,329.957 200.400 L 319.600 200.400 319.600 194.776 C 319.600 191.683,319.754 189.248,319.942 189.364 C 320.130 189.481,320.204 189.153,320.105 188.636 C 319.915 187.641,321.667 186.400,323.261 186.400 C 323.668 186.400,324.000 186.220,324.000 186.000 C 324.000 185.780,324.180 185.600,324.400 185.600 C 324.620 185.600,324.800 185.850,324.800 186.156 M184.900 187.476 C 185.285 187.576,185.915 187.576,186.300 187.476 C 186.685 187.375,186.370 187.293,185.600 187.293 C 184.830 187.293,184.515 187.375,184.900 187.476 M283.105 187.483 C 283.602 187.579,284.322 187.575,284.705 187.475 C 285.087 187.375,284.680 187.296,283.800 187.301 C 282.920 187.305,282.607 187.387,283.105 187.483 M220.544 208.800 C 220.544 210.890,220.612 211.745,220.694 210.700 C 220.776 209.655,220.776 207.945,220.694 206.900 C 220.612 205.855,220.544 206.710,220.544 208.800 M342.131 209.800 C 342.133 211.340,342.205 211.921,342.292 211.091 C 342.379 210.261,342.377 209.001,342.289 208.291 C 342.200 207.581,342.129 208.260,342.131 209.800 " stroke="none" fill="#fa8806" fill-rule="evenodd"></path><path id="path4" d="M207.200 181.188 C 206.210 181.429,205.432 183.600,206.336 183.600 C 206.550 183.600,206.643 183.285,206.542 182.900 C 206.339 182.125,209.073 181.937,211.300 182.573 C 212.252 182.844,212.400 182.773,212.400 182.043 C 212.400 181.580,212.175 181.171,211.900 181.135 C 210.450 180.947,208.080 180.974,207.200 181.188 M312.657 182.151 C 313.498 183.914,314.000 184.007,314.000 182.400 C 314.000 181.740,313.835 181.200,313.633 181.200 C 313.431 181.200,312.973 181.088,312.616 180.951 C 312.029 180.725,312.033 180.842,312.657 182.151 M354.400 181.146 C 354.400 181.336,354.760 181.950,355.200 182.509 C 355.699 183.143,356.000 184.132,356.000 185.135 C 356.000 186.779,356.778 188.000,357.825 188.000 C 358.138 188.000,358.875 188.540,359.463 189.200 C 360.051 189.860,360.745 190.400,361.004 190.400 C 361.264 190.400,361.800 190.758,362.196 191.195 C 362.592 191.633,363.835 192.572,364.958 193.282 C 366.081 193.993,367.125 194.754,367.278 194.975 C 367.431 195.196,367.685 195.249,367.841 195.092 C 367.998 194.935,368.392 195.027,368.716 195.296 C 369.203 195.701,369.557 195.497,370.753 194.119 C 371.549 193.203,372.693 192.332,373.296 192.184 C 373.898 192.036,374.912 191.322,375.549 190.597 C 376.185 189.872,377.540 188.910,378.558 188.460 C 379.576 188.009,380.473 187.407,380.550 187.120 C 380.628 186.834,380.915 185.700,381.190 184.600 C 381.464 183.500,381.780 182.285,381.891 181.900 C 382.053 181.340,381.844 181.200,380.847 181.200 L 379.600 181.200 379.600 183.446 C 379.600 185.671,377.737 188.400,376.218 188.400 C 375.984 188.400,375.568 188.760,375.293 189.200 C 375.018 189.640,374.532 190.000,374.213 190.000 C 373.894 190.000,372.898 190.720,372.000 191.600 C 371.102 192.480,370.105 193.200,369.784 193.200 C 369.463 193.200,369.200 193.380,369.200 193.600 C 369.200 193.820,368.840 194.000,368.400 194.000 C 367.960 194.000,367.600 193.820,367.600 193.600 C 367.600 193.380,367.357 193.200,367.059 193.200 C 366.762 193.200,365.954 192.660,365.263 192.000 C 364.572 191.340,363.847 190.800,363.652 190.800 C 363.456 190.800,362.555 190.080,361.648 189.200 C 360.741 188.320,359.762 187.600,359.472 187.600 C 358.263 187.600,357.200 185.655,357.200 183.444 C 357.200 181.552,357.092 181.264,356.300 181.052 C 355.032 180.712,354.400 180.744,354.400 181.146 M177.200 181.600 C 177.200 181.820,176.941 182.000,176.624 182.000 C 175.855 182.000,172.400 185.433,172.400 186.198 C 172.400 186.529,172.220 186.800,172.000 186.800 C 171.780 186.800,171.600 187.149,171.600 187.576 C 171.600 188.003,171.414 188.468,171.187 188.608 C 170.696 188.911,170.763 194.000,171.258 194.000 C 171.446 194.000,171.600 194.460,171.600 195.022 C 171.600 195.605,172.114 196.591,172.798 197.322 C 173.457 198.025,173.997 198.727,173.998 198.881 C 173.999 199.036,174.675 199.477,175.500 199.860 C 176.325 200.244,177.110 200.717,177.243 200.911 C 177.377 201.105,178.007 201.205,178.643 201.132 L 179.800 201.000 178.600 199.851 C 176.890 198.215,175.893 197.615,174.717 197.518 C 173.823 197.444,173.629 197.159,173.218 195.323 C 172.958 194.163,172.578 193.110,172.373 192.983 C 171.798 192.628,171.956 190.292,172.613 189.424 C 172.936 188.996,173.200 188.149,173.200 187.539 C 173.200 186.930,173.425 186.246,173.700 186.019 C 176.636 183.594,177.828 182.758,178.641 182.554 C 180.040 182.203,179.862 181.200,178.400 181.200 C 177.740 181.200,177.200 181.380,177.200 181.600 M196.915 181.744 C 196.984 181.953,197.760 182.336,198.638 182.595 C 203.719 184.096,206.625 191.600,202.126 191.600 C 200.875 191.600,200.800 191.520,200.800 190.187 C 200.800 189.274,200.579 188.690,200.173 188.534 C 199.167 188.148,198.660 188.964,199.229 190.053 C 199.502 190.574,199.837 191.248,199.974 191.550 C 200.243 192.141,204.009 192.315,205.300 191.796 C 206.071 191.486,206.252 189.657,205.626 188.495 C 205.421 188.113,205.017 187.215,204.729 186.500 C 204.440 185.785,204.069 185.200,203.902 185.200 C 203.736 185.200,203.600 184.935,203.600 184.610 C 203.600 184.286,203.060 183.741,202.400 183.400 C 201.740 183.059,201.200 182.604,201.200 182.390 C 201.200 182.175,200.840 182.000,200.400 182.000 C 199.960 182.000,199.600 181.814,199.600 181.587 C 199.600 181.361,198.967 181.218,198.194 181.270 C 197.421 181.322,196.845 181.535,196.915 181.744 M235.067 181.467 C 234.920 181.613,234.800 182.907,234.800 184.342 C 234.800 186.787,234.712 187.041,233.398 188.376 C 229.979 191.850,226.800 195.378,226.800 195.698 C 226.800 195.890,226.592 195.919,226.338 195.762 C 226.059 195.589,225.985 195.652,226.151 195.921 C 226.303 196.167,225.974 196.660,225.413 197.028 C 224.854 197.395,224.399 198.075,224.398 198.546 C 224.397 199.239,224.020 198.985,222.400 197.200 C 221.302 195.990,220.402 194.775,220.402 194.500 C 220.401 194.225,220.151 194.000,219.846 194.000 C 219.541 194.000,218.975 193.517,218.589 192.927 C 217.637 191.474,213.429 187.395,213.804 188.289 C 213.969 188.680,214.190 189.402,214.297 189.893 C 214.496 190.811,218.516 195.200,219.157 195.200 C 219.839 195.200,221.867 197.404,222.120 198.420 C 222.528 200.050,224.918 199.951,225.963 198.260 C 226.392 197.567,227.746 196.135,228.971 195.077 C 230.543 193.721,231.200 192.866,231.200 192.177 C 231.200 191.458,231.417 191.200,232.021 191.200 C 232.573 191.200,232.978 190.808,233.260 190.000 C 233.521 189.252,233.956 188.800,234.416 188.800 C 235.531 188.800,235.737 188.150,235.770 184.525 C 235.798 181.367,235.680 180.853,235.067 181.467 M239.200 181.538 C 239.200 182.073,240.636 183.230,240.932 182.934 C 241.614 182.253,241.169 181.200,240.200 181.200 C 239.650 181.200,239.200 181.352,239.200 181.538 M243.600 188.604 C 243.600 194.068,243.724 196.025,244.062 195.913 C 244.835 195.655,245.572 192.498,245.179 191.128 C 244.960 190.364,244.993 189.285,245.266 188.252 C 245.883 185.926,245.264 181.461,244.300 181.276 C 243.654 181.152,243.600 181.712,243.600 188.604 M248.000 181.938 C 248.000 182.635,249.147 184.000,249.733 184.000 C 249.882 184.000,251.548 185.530,253.434 187.400 C 256.461 190.399,258.207 191.706,257.362 190.338 C 257.189 190.059,257.252 189.985,257.521 190.151 C 257.765 190.302,257.870 190.673,257.754 190.975 C 257.521 191.582,258.197 192.536,260.600 194.994 C 261.480 195.894,262.830 197.388,263.600 198.313 C 264.370 199.239,265.220 199.997,265.490 199.998 C 265.759 199.999,266.259 200.540,266.600 201.200 C 266.941 201.860,267.391 202.400,267.600 202.400 C 267.809 202.400,268.247 202.917,268.574 203.549 C 268.901 204.181,269.574 204.804,270.070 204.934 C 271.303 205.257,271.816 204.352,270.798 203.651 C 270.359 203.349,270.000 202.932,270.000 202.723 C 270.000 202.230,268.968 201.200,268.475 201.200 C 268.264 201.200,267.818 200.782,267.483 200.271 C 267.149 199.760,265.153 197.555,263.049 195.371 C 257.585 189.701,256.400 188.424,256.400 188.213 C 256.400 188.111,254.871 186.491,253.002 184.613 C 249.645 181.242,248.000 180.362,248.000 181.938 M271.691 183.200 C 271.666 184.300,271.815 185.200,272.023 185.200 C 272.230 185.200,272.400 184.696,272.400 184.080 C 272.400 183.464,272.600 182.760,272.845 182.515 C 273.358 182.002,272.992 181.200,272.245 181.200 C 271.908 181.200,271.721 181.873,271.691 183.200 M275.411 181.583 C 275.138 182.023,277.370 183.297,277.749 182.917 C 277.887 182.779,278.000 182.337,278.000 181.933 C 278.000 181.136,275.865 180.847,275.411 181.583 M279.600 184.345 L 279.600 187.489 286.300 187.412 C 294.253 187.320,294.000 187.259,294.000 189.276 C 294.000 191.205,294.847 191.187,295.244 189.249 C 295.673 187.150,294.768 186.844,287.656 186.684 C 280.706 186.528,280.816 186.582,280.806 183.300 C 280.801 181.703,280.656 181.200,280.200 181.200 C 279.718 181.200,279.600 181.816,279.600 184.345 M319.604 181.796 C 319.332 182.123,318.978 182.310,318.817 182.210 C 318.403 181.955,315.907 184.384,315.231 185.700 C 314.919 186.305,314.515 186.800,314.332 186.800 C 314.150 186.800,314.000 191.390,314.000 197.000 C 314.000 205.452,314.095 207.200,314.557 207.200 C 315.463 207.200,315.526 206.565,315.631 196.358 C 315.733 186.452,315.798 185.600,316.455 185.600 C 316.658 185.600,317.386 184.961,318.071 184.180 C 318.757 183.399,319.548 182.848,319.829 182.956 C 320.631 183.264,323.096 182.448,323.348 181.792 C 323.667 180.961,320.294 180.964,319.604 181.796 M339.347 181.854 C 339.978 182.195,340.923 182.393,341.447 182.293 C 341.971 182.193,342.400 182.245,342.400 182.409 C 342.400 182.573,342.778 182.806,343.240 182.926 C 343.709 183.049,343.963 183.337,343.814 183.578 C 343.519 184.055,346.404 187.200,347.138 187.200 C 347.392 187.200,347.600 186.930,347.600 186.600 C 347.600 186.270,347.420 186.000,347.200 186.000 C 346.980 186.000,346.800 185.717,346.800 185.371 C 346.800 184.641,345.862 183.600,345.205 183.600 C 344.956 183.600,344.881 183.392,345.038 183.138 C 345.209 182.863,345.149 182.785,344.889 182.945 C 344.651 183.092,344.349 183.042,344.220 182.832 C 343.739 182.054,341.426 181.201,339.839 181.216 L 338.200 181.232 339.347 181.854 M350.800 185.532 C 350.800 189.847,350.805 189.867,351.893 190.432 C 352.494 190.745,353.511 191.495,354.152 192.100 C 354.794 192.705,355.482 193.200,355.681 193.200 C 355.880 193.200,356.619 193.739,357.322 194.398 C 358.025 195.057,358.745 195.597,358.922 195.598 C 359.099 195.599,359.819 196.139,360.522 196.798 C 361.225 197.457,362.025 197.997,362.300 197.998 C 362.575 197.999,362.800 198.103,362.800 198.229 C 362.800 198.615,361.682 199.600,361.243 199.600 C 361.015 199.600,360.635 199.960,360.400 200.400 C 360.165 200.840,359.708 201.200,359.386 201.200 C 359.064 201.200,358.800 201.380,358.800 201.600 C 358.800 201.820,358.575 202.001,358.300 202.002 C 358.025 202.003,357.225 202.543,356.522 203.202 C 355.819 203.861,355.099 204.401,354.922 204.402 C 354.745 204.403,354.060 204.908,353.400 205.524 C 352.740 206.140,351.885 206.763,351.500 206.909 C 350.894 207.139,350.800 207.743,350.800 211.387 L 350.800 215.600 351.800 215.600 C 352.939 215.600,352.987 215.489,352.314 214.411 C 351.932 213.800,351.932 213.343,352.314 212.288 C 352.581 211.548,352.800 210.137,352.800 209.152 C 352.800 207.350,353.312 206.400,354.285 206.400 C 355.124 206.400,358.737 203.864,358.929 203.140 C 359.025 202.777,359.891 202.131,360.852 201.705 C 364.894 199.913,364.887 196.919,360.836 194.981 C 359.937 194.552,359.107 193.930,358.992 193.600 C 358.876 193.270,357.445 192.133,355.813 191.073 C 352.240 188.754,351.718 187.704,352.376 184.147 C 352.935 181.123,352.950 181.200,351.800 181.200 L 350.800 181.200 350.800 185.532 M383.666 181.551 C 383.260 181.808,383.332 181.941,383.966 182.107 C 384.721 182.304,384.800 182.620,384.800 185.424 L 384.800 188.523 383.142 190.053 C 381.148 191.894,379.814 192.800,379.095 192.800 C 378.802 192.800,377.868 193.511,377.020 194.379 C 376.172 195.248,375.010 196.013,374.439 196.079 C 373.713 196.164,373.362 196.471,373.272 197.100 C 373.082 198.438,374.703 198.275,376.278 196.798 C 376.981 196.139,377.670 195.600,377.809 195.600 C 377.948 195.600,378.602 195.060,379.262 194.400 C 379.922 193.740,380.711 193.200,381.017 193.200 C 381.322 193.200,381.765 192.840,382.000 192.400 C 382.235 191.960,382.692 191.600,383.014 191.600 C 383.336 191.600,383.600 191.464,383.600 191.298 C 383.600 191.131,384.140 190.756,384.800 190.464 L 386.000 189.933 386.000 185.566 C 386.000 180.950,385.627 180.308,383.666 181.551 M313.043 184.633 C 312.909 184.981,312.800 185.586,312.800 185.978 C 312.800 186.890,309.946 187.228,305.400 186.855 C 299.446 186.366,297.818 187.043,298.313 189.800 C 298.578 191.277,298.644 207.304,298.403 211.723 C 298.345 212.780,298.051 213.892,297.749 214.194 C 296.863 215.080,297.113 215.600,298.425 215.600 L 299.649 215.600 299.597 212.300 C 299.569 210.485,299.558 204.140,299.573 198.200 L 299.600 187.400 306.211 187.539 C 313.559 187.694,314.000 187.570,314.000 185.351 C 314.000 183.943,313.462 183.540,313.043 184.633 M211.443 185.033 C 211.006 186.172,211.187 186.999,211.981 187.496 C 212.888 188.062,213.576 187.416,212.845 186.685 C 212.600 186.440,212.400 185.826,212.400 185.320 C 212.400 184.268,211.805 184.090,211.443 185.033 M177.912 187.617 C 176.968 188.405,176.756 188.832,176.972 189.512 C 177.240 190.357,177.300 190.335,178.585 188.932 L 179.920 187.475 188.448 187.502 C 194.215 187.521,197.024 187.671,197.122 187.965 C 197.296 188.487,198.662 188.546,198.972 188.045 C 199.624 186.990,197.793 186.748,188.594 186.675 L 179.130 186.600 177.912 187.617 M321.200 187.007 C 319.858 187.765,318.894 191.600,320.045 191.600 C 320.313 191.600,320.420 191.120,320.315 190.400 C 320.218 189.740,320.253 189.200,320.394 189.200 C 320.534 189.200,321.051 188.826,321.542 188.368 C 322.377 187.590,322.914 187.534,329.831 187.508 C 333.899 187.493,337.321 187.327,337.437 187.140 C 337.553 186.953,335.252 186.791,332.324 186.780 C 329.396 186.769,325.920 186.688,324.600 186.601 C 323.009 186.496,321.863 186.633,321.200 187.007 M338.700 186.676 C 337.694 186.939,337.837 187.600,338.900 187.600 C 340.337 187.601,342.000 189.289,342.000 190.747 C 342.000 191.436,342.203 192.000,342.452 192.000 C 343.118 192.000,342.660 188.769,341.811 187.474 C 341.133 186.438,340.364 186.241,338.700 186.676 M206.000 187.539 C 206.000 188.587,207.111 190.680,207.810 190.948 C 208.134 191.073,208.400 191.347,208.400 191.556 C 208.400 191.766,209.755 193.347,211.411 195.069 C 215.422 199.240,216.400 200.312,216.400 200.539 C 216.400 200.644,217.390 201.743,218.600 202.982 L 220.800 205.236 220.825 207.918 C 220.842 209.660,220.961 210.319,221.166 209.800 C 222.208 207.159,221.104 203.372,218.494 200.631 C 217.115 199.184,215.841 198.000,215.661 198.000 C 215.482 198.000,214.731 197.055,213.993 195.900 C 212.400 193.406,210.641 191.600,209.804 191.600 C 209.402 191.600,209.200 191.206,209.200 190.423 C 209.200 189.539,208.901 189.069,208.000 188.536 C 207.340 188.146,206.800 187.596,206.800 187.314 C 206.800 187.031,206.620 186.800,206.400 186.800 C 206.180 186.800,206.000 187.132,206.000 187.539 M239.771 188.588 C 239.406 189.145,239.198 189.948,239.308 190.371 C 239.445 190.893,239.341 191.075,238.984 190.939 C 238.377 190.705,236.000 192.832,236.000 193.609 C 236.000 194.082,234.311 195.931,228.671 201.633 C 226.171 204.161,226.019 206.151,228.500 203.871 C 229.325 203.112,230.000 202.370,230.000 202.221 C 230.000 201.947,230.455 201.424,233.833 197.816 C 234.855 196.725,235.961 195.420,236.292 194.916 C 236.622 194.412,237.141 194.000,237.446 194.000 C 237.751 194.000,238.000 193.796,238.000 193.546 C 238.000 193.296,238.405 192.670,238.900 192.156 C 240.750 190.231,241.200 189.580,241.200 188.824 C 241.200 187.597,240.496 187.481,239.771 188.588 M347.200 189.000 C 347.200 189.978,347.381 190.400,347.800 190.400 C 348.219 190.400,348.400 189.978,348.400 189.000 C 348.400 188.022,348.219 187.600,347.800 187.600 C 347.381 187.600,347.200 188.022,347.200 189.000 M248.000 191.133 C 248.000 192.159,248.428 192.475,249.081 191.932 C 249.520 191.568,249.821 191.715,250.518 192.634 C 251.003 193.273,251.985 194.370,252.700 195.071 C 253.415 195.772,254.000 196.461,254.000 196.602 C 254.000 196.997,254.923 197.816,255.700 198.110 C 256.085 198.256,256.400 198.546,256.400 198.754 C 256.400 199.091,258.828 201.764,263.004 206.024 C 263.772 206.808,264.400 207.556,264.400 207.688 C 264.400 208.067,271.203 214.800,271.586 214.800 C 273.071 214.800,264.792 205.091,263.009 204.743 C 262.608 204.664,262.216 204.185,262.139 203.679 C 261.891 202.051,260.777 200.349,259.513 199.665 C 258.836 199.299,257.723 198.448,257.041 197.772 C 254.400 195.160,252.126 192.570,251.879 191.894 C 251.371 190.505,248.000 189.844,248.000 191.133 M293.528 203.261 C 293.457 209.717,293.535 215.171,293.700 215.380 C 293.876 215.603,294.000 215.551,294.000 215.256 C 294.000 214.960,294.206 214.876,294.500 215.053 C 294.791 215.228,294.750 215.039,294.400 214.600 C 294.050 214.161,294.009 213.972,294.300 214.147 C 294.657 214.361,294.800 214.095,294.800 213.218 C 294.800 212.542,294.575 211.621,294.300 211.170 C 293.875 210.474,293.915 210.266,294.566 209.783 C 295.246 209.279,295.280 209.044,294.868 207.707 C 294.612 206.878,294.320 202.983,294.219 199.051 C 294.118 195.119,293.950 191.816,293.845 191.712 C 293.741 191.608,293.598 196.805,293.528 203.261 M177.293 192.700 C 177.380 192.865,177.683 193.585,177.965 194.300 C 178.430 195.477,178.635 195.599,180.139 195.594 C 181.359 195.589,181.641 195.485,181.200 195.200 C 180.870 194.987,180.295 194.809,179.923 194.806 C 179.550 194.803,178.926 194.260,178.536 193.600 C 177.945 192.599,176.798 191.769,177.293 192.700 M342.300 193.830 C 342.135 193.997,342.000 195.543,342.000 197.267 C 342.000 200.175,341.940 200.400,341.167 200.400 C 340.678 200.400,340.402 200.607,340.500 200.900 C 340.768 201.704,341.978 201.725,342.272 200.930 C 342.420 200.528,342.648 200.110,342.777 200.000 C 342.906 199.890,342.919 198.388,342.806 196.663 C 342.693 194.938,342.465 193.663,342.300 193.830 M197.200 196.214 C 197.200 196.570,197.999 197.159,199.100 197.614 C 201.957 198.795,202.165 198.968,202.603 200.527 C 202.825 201.319,203.230 202.190,203.503 202.463 C 203.777 202.737,204.000 203.650,204.000 204.493 C 204.000 205.336,204.261 206.650,204.580 207.413 C 205.046 208.528,205.056 208.800,204.635 208.800 C 204.347 208.800,203.704 209.565,203.207 210.500 C 202.031 212.712,199.854 214.400,198.178 214.400 C 197.398 214.400,196.794 214.638,196.655 215.000 C 196.475 215.471,196.766 215.600,198.013 215.600 C 198.886 215.600,199.600 215.420,199.600 215.200 C 199.600 214.980,199.878 214.800,200.217 214.800 C 200.556 214.800,201.220 214.440,201.692 214.000 C 202.164 213.560,202.772 213.200,203.042 213.200 C 203.312 213.200,203.772 212.660,204.064 212.000 C 204.356 211.340,204.731 210.800,204.898 210.800 C 205.064 210.800,205.200 210.361,205.200 209.824 C 205.200 209.287,205.380 208.736,205.600 208.600 C 205.820 208.464,206.000 207.114,206.000 205.600 C 206.000 204.086,205.820 202.736,205.600 202.600 C 205.380 202.464,205.200 201.913,205.200 201.376 C 205.200 200.839,205.065 200.396,204.900 200.391 C 204.735 200.385,204.092 199.694,203.471 198.854 C 202.850 198.014,201.725 197.084,200.971 196.789 C 200.217 196.493,199.600 196.104,199.600 195.925 C 199.600 195.746,199.060 195.600,198.400 195.600 C 197.588 195.600,197.200 195.798,197.200 196.214 M373.200 198.967 C 373.200 200.077,373.697 200.800,374.459 200.800 C 374.884 200.800,375.917 201.520,376.754 202.400 C 377.591 203.280,378.602 204.000,379.000 204.000 C 379.398 204.000,380.371 204.675,381.162 205.500 C 381.953 206.325,383.074 207.212,383.654 207.471 C 385.036 208.088,385.263 213.724,383.935 214.435 C 382.769 215.059,383.078 215.600,384.600 215.600 L 386.000 215.600 386.000 211.387 C 386.000 207.743,385.906 207.139,385.300 206.909 C 384.915 206.763,384.060 206.140,383.400 205.524 C 382.740 204.908,382.055 204.403,381.878 204.402 C 381.701 204.401,380.981 203.861,380.278 203.202 C 379.575 202.543,378.863 202.003,378.697 202.002 C 378.530 202.001,377.838 201.505,377.159 200.900 C 376.480 200.295,375.793 199.800,375.633 199.800 C 375.474 199.800,375.028 199.485,374.643 199.100 C 373.796 198.253,373.200 198.199,373.200 198.967 M271.685 201.022 C 271.674 202.325,271.830 203.190,272.063 203.112 C 272.281 203.040,272.447 202.850,272.430 202.690 C 272.413 202.531,272.400 201.590,272.400 200.600 C 272.400 199.610,272.244 198.800,272.053 198.800 C 271.862 198.800,271.696 199.800,271.685 201.022 M192.000 201.219 L 187.000 201.438 191.000 201.582 C 197.467 201.814,197.262 201.769,198.478 203.226 C 199.595 204.564,200.020 206.800,199.157 206.800 C 198.914 206.800,198.815 207.061,198.937 207.381 C 199.169 207.984,197.264 209.188,196.039 209.213 C 195.514 209.223,195.538 209.330,196.176 209.813 C 197.310 210.670,198.193 210.534,198.796 209.407 C 199.089 208.860,199.659 208.308,200.064 208.180 C 201.976 207.573,200.602 202.408,198.401 201.930 C 198.072 201.858,197.622 201.620,197.401 201.400 C 197.152 201.152,195.102 201.083,192.000 201.219 M181.202 201.700 C 181.201 201.865,182.460 202.000,184.000 202.000 C 185.711 202.000,186.800 201.835,186.800 201.575 C 186.800 201.303,185.790 201.195,184.002 201.275 C 182.463 201.344,181.203 201.535,181.202 201.700 M367.651 202.031 C 367.129 202.240,366.049 202.924,365.251 203.552 C 364.453 204.180,363.427 204.809,362.971 204.951 C 362.059 205.235,361.434 205.782,358.900 208.518 C 357.416 210.120,356.390 211.770,357.680 210.480 C 357.944 210.216,358.412 210.000,358.720 210.000 C 359.027 210.000,359.756 209.498,360.340 208.885 C 360.923 208.271,362.030 207.332,362.800 206.798 C 363.570 206.263,364.432 205.602,364.715 205.327 C 364.998 205.053,365.763 204.513,366.415 204.128 C 367.067 203.743,367.600 203.286,367.600 203.114 C 367.600 202.476,369.042 202.826,369.600 203.600 C 369.917 204.040,370.388 204.400,370.646 204.400 C 370.904 204.400,371.693 204.940,372.400 205.600 C 373.107 206.260,373.827 206.800,374.000 206.800 C 374.173 206.800,374.893 207.340,375.600 208.000 C 376.307 208.660,377.001 209.200,377.142 209.200 C 378.412 209.203,379.600 211.219,379.600 213.372 L 379.600 215.651 380.900 215.525 C 381.827 215.436,382.153 215.228,382.037 214.800 C 380.543 209.315,380.723 209.652,378.809 208.756 C 377.814 208.291,376.196 207.120,375.213 206.155 C 374.230 205.190,373.205 204.400,372.935 204.400 C 372.665 204.400,371.760 203.771,370.922 203.002 C 369.290 201.503,369.106 201.448,367.651 202.031 M243.336 208.000 C 243.332 209.870,243.401 210.812,243.490 210.092 C 243.579 209.373,243.820 208.889,244.026 209.016 C 244.232 209.143,244.400 209.057,244.400 208.824 C 244.400 208.591,244.230 208.400,244.022 208.400 C 243.814 208.400,243.576 207.545,243.494 206.500 C 243.412 205.455,243.341 206.130,243.336 208.000 M170.800 206.376 C 170.800 207.023,170.980 207.664,171.200 207.800 C 171.420 207.936,171.600 208.487,171.600 209.024 C 171.600 209.561,171.780 210.000,172.000 210.000 C 172.220 210.000,172.400 210.360,172.400 210.800 C 172.400 211.240,172.537 211.600,172.705 211.600 C 172.873 211.600,173.188 211.990,173.405 212.467 C 173.622 212.944,174.160 213.529,174.600 213.767 C 175.040 214.005,175.490 214.290,175.600 214.400 C 176.190 214.990,177.713 215.600,178.595 215.600 C 179.928 215.600,179.906 214.563,178.566 214.227 C 177.997 214.084,177.089 213.526,176.549 212.986 C 176.009 212.445,175.035 211.728,174.384 211.392 C 173.086 210.721,173.108 210.792,173.196 207.500 L 173.257 205.200 172.028 205.200 C 170.936 205.200,170.800 205.330,170.800 206.376 M175.675 205.895 C 175.876 206.938,177.200 207.054,177.200 206.029 C 177.200 205.457,176.943 205.200,176.371 205.200 C 175.798 205.200,175.583 205.415,175.675 205.895 M319.867 206.427 C 320.065 206.625,325.171 206.835,331.213 206.893 L 342.200 207.000 342.412 208.800 L 342.624 210.600 342.862 209.000 C 343.272 206.241,343.430 206.278,330.772 206.166 C 324.091 206.107,319.653 206.213,319.867 206.427 M247.847 207.384 C 247.325 208.180,247.291 208.562,247.665 209.384 C 248.456 211.119,249.200 210.642,249.200 208.400 C 249.200 206.187,248.819 205.901,247.847 207.384 M177.099 207.034 C 175.952 208.182,179.174 210.870,180.711 210.048 C 181.142 209.817,181.637 209.757,181.812 209.914 C 181.986 210.071,181.999 209.975,181.841 209.700 C 181.682 209.425,181.178 209.200,180.720 209.200 C 180.262 209.200,179.371 208.660,178.740 208.000 C 177.508 206.711,177.454 206.679,177.099 207.034 M277.000 208.000 C 276.708 208.472,277.087 209.200,277.624 209.200 C 277.831 209.200,278.000 208.840,278.000 208.400 C 278.000 207.556,277.418 207.324,277.000 208.000 M220.705 212.000 C 220.053 214.216,220.320 215.600,221.400 215.600 C 222.512 215.600,222.733 214.774,221.823 214.019 C 221.506 213.756,221.191 212.969,221.123 212.270 C 221.004 211.045,220.990 211.036,220.705 212.000 M356.180 212.300 C 356.051 212.905,355.777 213.813,355.572 214.319 C 355.061 215.581,355.070 215.600,356.200 215.600 C 357.145 215.600,357.200 215.480,357.200 213.400 C 357.200 211.090,356.582 210.423,356.180 212.300 M313.843 213.224 C 313.557 215.011,313.751 215.600,314.624 215.600 C 315.049 215.600,315.200 215.075,315.200 213.600 C 315.200 211.067,314.230 210.799,313.843 213.224 M342.286 212.284 C 341.520 213.467,342.107 215.438,343.250 215.525 C 344.745 215.639,345.037 214.974,343.837 214.187 C 343.293 213.831,342.792 213.148,342.723 212.670 C 342.640 212.084,342.497 211.958,342.286 212.284 M226.537 213.455 C 226.679 213.708,226.440 214.001,225.996 214.117 C 224.982 214.382,224.947 215.600,225.953 215.600 C 226.834 215.600,227.394 214.015,226.728 213.407 C 226.421 213.126,226.361 213.141,226.537 213.455 M276.639 214.065 C 275.933 215.074,276.133 215.600,277.224 215.600 C 277.820 215.600,278.000 215.321,278.000 214.400 C 278.000 212.986,277.484 212.859,276.639 214.065 M243.200 214.357 C 243.200 214.774,243.442 215.207,243.738 215.321 C 244.123 215.468,244.223 215.254,244.091 214.563 C 243.873 213.423,243.200 213.268,243.200 214.357 M246.200 214.800 C 244.313 215.138,244.358 215.170,247.100 215.451 C 248.840 215.629,249.200 215.558,249.200 215.033 C 249.200 214.364,248.808 214.333,246.200 214.800 M347.200 215.000 C 347.200 215.330,347.470 215.600,347.800 215.600 C 348.130 215.600,348.400 215.330,348.400 215.000 C 348.400 214.670,348.130 214.400,347.800 214.400 C 347.470 214.400,347.200 214.670,347.200 215.000 " stroke="none" fill="#f09532" fill-rule="evenodd"></path></g></svg>