<svg id="svg" version="1.1" xmlns="http://www.w3.org/2000/svg" xmlns:xlink="http://www.w3.org/1999/xlink" width="400" height="400" viewBox="0, 0, 400,400"><g id="svgg"><path id="path0" d="M0.000 200.000 L 0.000 400.000 200.000 400.000 L 400.000 400.000 400.000 200.000 L 400.000 0.000 200.000 0.000 L 0.000 0.000 0.000 200.000 M153.800 136.146 C 166.673 139.948,176.288 151.285,177.839 164.494 C 178.257 168.053,178.381 168.000,169.600 168.000 C 161.190 168.000,161.453 168.091,161.054 165.032 C 160.441 160.343,157.009 155.741,152.451 153.497 L 149.818 152.200 122.643 152.089 C 91.828 151.963,92.637 151.889,88.369 155.262 C 79.282 162.445,80.984 176.592,91.530 181.536 L 93.800 182.600 121.800 182.846 C 149.783 183.091,151.061 183.158,155.400 184.608 C 186.108 194.868,184.859 237.941,153.600 246.674 C 149.628 247.783,94.001 247.788,90.000 246.679 C 78.129 243.390,68.854 233.518,66.383 221.546 C 64.903 214.372,64.414 214.798,74.133 214.806 C 82.465 214.813,82.212 214.734,82.585 217.469 C 83.260 222.429,86.761 227.076,91.520 229.330 L 94.200 230.600 120.737 230.714 C 150.484 230.841,150.255 230.859,154.364 228.061 C 165.992 220.143,161.932 202.288,147.987 200.026 C 146.376 199.764,135.770 199.605,119.883 199.603 C 86.510 199.599,83.681 198.978,74.699 189.674 C 56.788 171.121,67.591 139.130,93.000 135.477 C 97.208 134.873,151.510 135.469,153.800 136.146 M308.000 135.767 C 322.119 138.768,332.561 150.328,334.282 164.861 C 334.645 167.926,334.451 168.000,326.000 168.000 C 317.948 168.000,317.818 167.955,317.447 165.032 C 316.853 160.358,313.414 155.743,308.850 153.497 L 306.217 152.200 278.208 152.200 L 250.200 152.200 247.913 153.272 C 233.759 159.906,236.971 180.576,252.503 182.823 C 253.877 183.021,266.536 183.188,280.636 183.192 C 309.793 183.201,309.279 183.152,316.200 186.570 C 342.955 199.781,339.108 238.194,310.200 246.483 L 307.000 247.400 278.600 247.400 C 255.497 247.400,249.715 247.294,247.600 246.830 C 234.212 243.894,224.153 232.728,222.382 218.839 C 221.845 214.627,221.500 214.800,230.425 214.800 C 238.889 214.800,238.342 214.589,239.082 218.148 C 240.285 223.941,244.428 228.508,249.973 230.155 C 253.230 231.122,303.137 231.128,306.427 230.162 C 320.887 225.915,321.406 206.010,307.200 200.527 C 305.573 199.899,302.650 199.810,276.800 199.601 C 244.822 199.342,246.579 199.500,240.200 196.307 C 212.585 182.485,217.871 142.499,248.200 135.794 C 251.777 135.003,304.296 134.979,308.000 135.767 M207.920 231.280 C 208.657 232.017,208.592 246.543,207.848 247.160 C 207.466 247.478,204.925 247.584,199.548 247.509 L 191.800 247.400 191.691 239.429 C 191.608 233.319,191.701 231.383,192.091 231.135 C 192.945 230.593,207.365 230.725,207.920 231.280 " stroke="none" fill="#fbfbfb" fill-rule="evenodd"></path><path id="path1" d="M94.400 136.010 C 74.451 138.142,61.786 158.128,67.914 177.804 C 70.023 184.574,76.660 192.167,83.400 195.518 C 90.644 199.120,91.472 199.199,121.824 199.204 C 150.407 199.209,149.974 199.179,153.816 201.430 C 157.214 203.422,159.588 206.395,161.199 210.679 C 163.887 217.827,158.905 227.584,151.114 230.431 C 148.583 231.357,95.551 231.648,93.319 230.749 C 87.100 228.245,83.089 223.847,82.192 218.547 C 81.648 215.333,82.394 215.600,73.973 215.600 L 66.400 215.600 66.406 217.500 C 66.450 231.190,78.792 244.314,93.800 246.630 C 98.995 247.432,144.605 247.432,149.800 246.630 C 181.297 241.769,187.631 200.540,159.000 186.744 C 152.823 183.767,154.552 183.917,122.800 183.611 C 91.988 183.315,93.483 183.427,89.576 181.128 C 77.266 173.887,80.348 155.118,94.400 151.755 C 97.302 151.061,145.621 150.962,148.880 151.643 C 155.337 152.994,160.939 158.882,161.588 165.000 L 161.800 167.000 169.371 167.109 C 173.535 167.169,177.082 167.078,177.254 166.906 C 177.518 166.642,177.067 163.342,176.127 158.665 C 174.337 149.757,164.004 139.856,153.000 136.505 C 150.739 135.817,100.203 135.390,94.400 136.010 M192.178 231.713 C 192.070 231.995,192.030 235.550,192.091 239.613 L 192.200 247.000 200.000 247.000 L 207.800 247.000 207.909 239.891 C 208.055 230.380,208.823 231.200,199.773 231.200 C 194.125 231.200,192.328 231.321,192.178 231.713 " stroke="none" fill="#060606" fill-rule="evenodd"></path><path id="path2" d="M252.000 135.853 C 220.507 138.350,211.690 181.477,239.800 195.524 C 247.045 199.145,247.603 199.198,278.200 199.204 C 299.402 199.208,304.954 199.317,306.400 199.757 C 321.535 204.365,322.248 225.046,307.458 230.452 C 304.276 231.615,252.100 231.606,248.915 230.442 C 243.145 228.333,239.291 223.603,238.452 217.600 L 238.200 215.800 230.444 215.691 L 222.688 215.582 222.955 218.532 C 224.255 232.879,235.369 244.341,250.200 246.630 C 255.395 247.432,301.005 247.432,306.200 246.630 C 322.446 244.123,333.641 231.301,333.630 215.216 C 333.627 210.944,333.442 209.692,332.149 205.200 C 330.267 198.660,323.458 190.884,316.430 187.249 C 309.580 183.706,311.494 183.892,279.200 183.630 L 250.600 183.398 247.800 182.082 C 233.663 175.436,235.905 154.878,251.120 151.650 C 254.043 151.029,302.319 151.024,305.280 151.643 C 311.669 152.980,316.728 158.173,318.015 164.713 L 318.504 167.200 326.052 167.200 L 333.600 167.200 333.600 165.193 C 333.600 153.076,322.660 140.209,309.200 136.496 C 307.130 135.925,258.049 135.373,252.000 135.853 " stroke="none" fill="#fc8506" fill-rule="evenodd"></path><path id="path3" d="M90.972 135.997 C 61.387 142.685,56.636 182.628,83.800 196.298 C 90.088 199.463,88.442 199.315,120.400 199.581 C 148.765 199.817,149.018 199.826,151.200 200.708 C 164.182 205.959,164.522 224.500,151.731 229.660 L 149.400 230.600 122.608 230.711 C 96.757 230.818,95.724 230.794,93.208 230.020 C 87.371 228.225,82.400 221.999,82.400 216.485 C 82.400 214.895,81.979 214.811,74.000 214.811 C 65.186 214.811,65.443 214.721,65.778 217.683 C 67.362 231.685,76.261 242.433,89.600 246.454 C 93.039 247.491,142.153 248.131,149.480 247.235 C 181.135 243.363,188.347 200.985,159.800 186.599 C 152.967 183.156,153.440 183.201,124.236 183.192 C 110.136 183.188,97.487 183.023,96.126 182.826 C 80.476 180.562,77.287 159.943,91.552 153.254 L 93.800 152.200 121.800 152.200 L 149.800 152.200 152.200 153.320 C 156.789 155.461,159.919 159.503,161.004 164.687 C 161.708 168.053,161.000 167.782,169.461 167.925 C 178.224 168.073,178.194 168.084,177.813 164.821 C 176.113 150.243,165.717 138.770,151.495 135.778 C 146.908 134.813,95.384 135.000,90.972 135.997 M153.000 136.505 C 164.004 139.856,174.337 149.757,176.127 158.665 C 177.067 163.342,177.518 166.642,177.254 166.906 C 177.082 167.078,173.535 167.169,169.371 167.109 L 161.800 167.000 161.588 165.000 C 160.939 158.882,155.337 152.994,148.880 151.643 C 145.621 150.962,97.302 151.061,94.400 151.755 C 80.348 155.118,77.266 173.887,89.576 181.128 C 93.483 183.427,91.988 183.315,122.800 183.611 C 154.552 183.917,152.823 183.767,159.000 186.744 C 187.631 200.540,181.297 241.769,149.800 246.630 C 144.605 247.432,98.995 247.432,93.800 246.630 C 78.792 244.314,66.450 231.190,66.406 217.500 L 66.400 215.600 73.973 215.600 C 82.394 215.600,81.648 215.333,82.192 218.547 C 83.089 223.847,87.100 228.245,93.319 230.749 C 95.551 231.648,148.583 231.357,151.114 230.431 C 158.905 227.584,163.887 217.827,161.199 210.679 C 159.588 206.395,157.214 203.422,153.816 201.430 C 149.974 199.179,150.407 199.209,121.824 199.204 C 91.472 199.199,90.644 199.120,83.400 195.518 C 55.821 181.805,63.679 139.294,94.400 136.010 C 100.203 135.390,150.739 135.817,153.000 136.505 M192.080 231.280 C 191.403 231.957,191.403 246.443,192.080 247.120 C 192.419 247.459,194.747 247.600,200.000 247.600 C 209.230 247.600,208.400 248.430,208.400 239.200 C 208.400 229.970,209.230 230.800,200.000 230.800 C 194.747 230.800,192.419 230.941,192.080 231.280 M207.595 231.991 C 207.860 232.486,207.978 235.442,207.909 239.891 L 207.800 247.000 200.000 247.000 L 192.200 247.000 192.091 239.613 C 192.030 235.550,192.070 231.995,192.178 231.713 C 192.552 230.738,207.065 231.000,207.595 231.991 " stroke="none" fill="#a2a2a2" fill-rule="evenodd"></path><path id="path4" d="M248.200 135.794 C 217.871 142.499,212.585 182.485,240.200 196.307 C 246.579 199.500,244.822 199.342,276.800 199.601 C 302.650 199.810,305.573 199.899,307.200 200.527 C 321.406 206.010,320.887 225.915,306.427 230.162 C 303.137 231.128,253.230 231.122,249.973 230.155 C 244.428 228.508,240.285 223.941,239.082 218.148 C 238.342 214.589,238.889 214.800,230.425 214.800 C 221.500 214.800,221.845 214.627,222.382 218.839 C 224.153 232.728,234.212 243.894,247.600 246.830 C 249.715 247.294,255.497 247.400,278.600 247.400 L 307.000 247.400 310.200 246.483 C 339.108 238.194,342.955 199.781,316.200 186.570 C 309.279 183.152,309.793 183.201,280.636 183.192 C 266.536 183.188,253.877 183.021,252.503 182.823 C 236.971 180.576,233.759 159.906,247.913 153.272 L 250.200 152.200 278.208 152.200 L 306.217 152.200 308.850 153.497 C 313.414 155.743,316.853 160.358,317.447 165.032 C 317.818 167.955,317.948 168.000,326.000 168.000 C 334.451 168.000,334.645 167.926,334.282 164.861 C 332.561 150.328,322.119 138.768,308.000 135.767 C 304.296 134.979,251.777 135.003,248.200 135.794 M309.200 136.496 C 322.660 140.209,333.600 153.076,333.600 165.193 L 333.600 167.200 326.052 167.200 L 318.504 167.200 318.015 164.713 C 316.728 158.173,311.669 152.980,305.280 151.643 C 302.319 151.024,254.043 151.029,251.120 151.650 C 235.905 154.878,233.663 175.436,247.800 182.082 L 250.600 183.398 279.200 183.630 C 311.494 183.892,309.580 183.706,316.430 187.249 C 323.458 190.884,330.267 198.660,332.149 205.200 C 333.442 209.692,333.627 210.944,333.630 215.216 C 333.641 231.301,322.446 244.123,306.200 246.630 C 301.005 247.432,255.395 247.432,250.200 246.630 C 235.369 244.341,224.255 232.879,222.955 218.532 L 222.688 215.582 230.444 215.691 L 238.200 215.800 238.452 217.600 C 239.291 223.603,243.145 228.333,248.915 230.442 C 252.100 231.606,304.276 231.615,307.458 230.452 C 322.248 225.046,321.535 204.365,306.400 199.757 C 304.954 199.317,299.402 199.208,278.200 199.204 C 247.603 199.198,247.045 199.145,239.800 195.524 C 211.690 181.477,220.507 138.350,252.000 135.853 C 258.049 135.373,307.130 135.925,309.200 136.496 M109.700 183.100 C 116.465 183.161,127.535 183.161,134.300 183.100 C 141.065 183.038,135.530 182.988,122.000 182.988 C 108.470 182.988,102.935 183.038,109.700 183.100 " stroke="none" fill="#fccf98" fill-rule="evenodd"></path></g></svg>