<svg id="svg" version="1.1" xmlns="http://www.w3.org/2000/svg" xmlns:xlink="http://www.w3.org/1999/xlink" width="400" height="400" viewBox="0, 0, 400,400"><g id="svgg"><path id="path0" d="M89.800 135.798 C 58.867 141.641,52.832 183.217,80.947 196.793 C 87.375 199.898,85.618 199.746,118.000 200.002 C 150.582 200.259,148.970 200.109,153.657 203.317 C 165.668 211.536,161.697 230.118,147.280 233.154 C 144.386 233.763,95.482 233.773,92.192 233.165 C 85.393 231.908,80.153 226.639,78.785 219.684 L 78.296 217.200 70.548 217.200 L 62.800 217.200 62.800 218.617 C 62.800 229.560,71.762 242.248,82.668 246.746 C 88.280 249.060,87.302 249.000,119.600 249.000 C 143.932 249.000,149.804 248.897,151.600 248.436 C 183.596 240.235,184.989 196.724,153.600 185.935 L 149.800 184.629 120.600 184.410 C 91.831 184.193,91.369 184.177,89.274 183.324 C 75.450 177.690,74.864 159.044,88.311 152.674 L 91.000 151.400 118.973 151.292 C 144.118 151.195,147.150 151.251,148.973 151.847 C 155.006 153.819,159.284 158.643,160.563 164.914 L 161.070 167.400 168.606 167.509 C 177.328 167.635,176.835 167.897,176.171 163.485 C 174.210 150.452,164.580 139.739,151.600 136.151 C 148.150 135.198,94.599 134.891,89.800 135.798 M250.200 135.802 C 216.583 141.992,213.961 187.917,246.600 198.845 L 249.400 199.782 278.600 200.006 C 311.030 200.254,309.239 200.102,313.822 203.008 C 326.353 210.955,322.365 230.451,307.645 233.198 C 303.874 233.902,255.133 233.714,252.035 232.983 C 245.385 231.416,239.891 225.452,239.285 219.143 L 239.098 217.200 231.103 217.200 L 223.108 217.200 223.395 219.495 C 225.122 233.319,233.885 244.014,246.800 248.060 L 249.800 249.000 280.200 249.000 L 310.600 249.000 313.600 248.060 C 342.338 239.057,345.434 201.139,318.531 187.657 C 312.372 184.571,313.566 184.674,281.200 184.412 C 250.180 184.160,251.567 184.251,247.583 182.191 C 238.133 177.304,236.312 163.644,244.089 155.988 C 249.056 151.099,248.228 151.209,280.200 151.209 C 309.256 151.209,308.847 151.184,312.832 153.216 C 316.582 155.129,320.420 160.380,321.042 164.448 C 321.547 167.752,321.159 167.601,329.114 167.594 C 337.461 167.587,337.379 167.616,337.016 164.749 C 335.129 149.845,324.369 138.391,309.800 135.776 C 305.405 134.987,254.505 135.009,250.200 135.802 M192.275 233.858 C 192.124 234.010,192.000 237.523,192.000 241.667 L 192.000 249.200 200.009 249.200 L 208.017 249.200 207.909 241.500 L 207.800 233.800 200.175 233.692 C 195.981 233.632,192.426 233.707,192.275 233.858 " stroke="none" fill="#fc8506" fill-rule="evenodd"></path><path id="path1" d="M0.000 200.000 L 0.000 400.000 200.000 400.000 L 400.000 400.000 400.000 200.000 L 400.000 0.000 200.000 0.000 L 0.000 0.000 0.000 200.000 M151.000 135.071 C 151.660 135.310,153.010 135.748,154.000 136.044 C 166.407 139.745,177.820 154.525,177.132 166.000 L 177.000 168.200 169.000 168.298 C 159.869 168.411,160.060 168.467,159.736 165.570 C 159.188 160.668,155.613 155.830,150.800 153.473 L 148.200 152.200 119.600 152.200 L 91.000 152.200 88.642 153.338 C 84.594 155.292,81.677 158.532,80.122 162.800 C 79.550 164.369,79.417 171.233,79.937 172.305 C 80.122 172.687,80.705 173.900,81.233 175.000 C 82.358 177.347,85.403 180.479,87.694 181.648 C 91.469 183.574,91.910 183.600,120.814 183.600 C 148.900 183.600,148.991 183.605,154.200 185.305 C 163.917 188.478,173.150 197.532,175.757 206.445 C 177.088 210.995,177.259 212.169,177.263 216.800 C 177.275 230.742,169.410 242.256,156.000 247.924 C 154.961 248.364,153.364 248.847,150.554 249.574 C 147.858 250.271,91.705 250.152,88.400 249.442 C 73.926 246.333,61.215 231.445,62.067 218.600 L 62.200 216.600 70.349 216.492 C 79.368 216.372,79.600 216.428,79.600 218.755 C 79.600 222.164,82.230 226.827,85.519 229.251 C 87.312 230.572,87.959 230.921,90.519 231.950 C 92.714 232.833,146.979 232.558,149.458 231.652 C 163.869 226.384,163.144 206.373,148.372 201.656 C 147.362 201.334,139.094 201.198,120.172 201.193 C 86.644 201.183,85.607 201.044,76.800 195.341 C 51.148 178.734,61.298 137.119,91.600 134.660 C 96.188 134.287,149.866 134.659,151.000 135.071 M311.800 135.088 C 312.460 135.333,313.720 135.752,314.600 136.020 C 327.165 139.849,338.871 155.191,337.932 166.600 L 337.800 168.200 329.651 168.308 C 320.632 168.428,320.400 168.372,320.400 166.045 C 320.400 160.756,315.435 154.657,309.600 152.779 C 306.936 151.922,253.511 151.918,250.742 152.775 C 239.729 156.183,236.415 171.285,244.966 179.099 C 249.960 183.664,249.363 183.590,281.200 183.595 C 311.572 183.601,311.703 183.611,318.136 186.554 C 347.794 200.119,343.135 241.792,311.094 249.539 C 308.136 250.254,251.750 250.156,248.800 249.430 C 234.129 245.822,223.410 233.473,222.734 219.400 L 222.600 216.600 230.400 216.487 C 240.281 216.343,239.836 216.226,240.191 219.066 C 240.930 224.980,244.894 229.705,250.863 231.783 C 253.095 232.561,307.580 232.715,309.481 231.949 C 314.776 229.817,319.600 225.061,319.600 221.973 C 319.600 221.574,319.780 221.136,320.000 221.000 C 322.116 219.692,319.653 209.918,316.235 206.058 C 311.933 201.200,311.936 201.200,281.052 201.200 C 249.009 201.200,248.785 201.178,240.791 197.283 C 232.258 193.125,226.061 185.439,223.310 175.600 C 222.114 171.323,222.621 159.507,224.073 157.820 C 224.253 157.611,224.402 157.161,224.405 156.820 C 224.414 155.784,227.510 150.056,229.359 147.657 C 234.982 140.358,242.756 135.868,251.600 134.811 C 255.775 134.311,310.383 134.563,311.800 135.088 M208.171 233.029 C 208.701 233.558,208.800 234.914,208.800 241.621 C 208.800 251.114,210.008 250.071,199.200 249.913 L 191.400 249.800 191.291 241.601 C 191.194 234.245,191.253 233.350,191.868 232.901 C 192.980 232.087,207.343 232.200,208.171 233.029 " stroke="none" fill="#fcfcfc" fill-rule="evenodd"></path><path id="path2" d="M105.700 135.100 C 113.345 135.161,125.855 135.161,133.500 135.100 C 141.145 135.039,134.890 134.989,119.600 134.989 C 104.310 134.989,98.055 135.039,105.700 135.100 M266.529 135.100 C 274.190 135.161,286.610 135.161,294.129 135.100 C 301.648 135.039,295.380 134.989,280.200 134.989 C 265.020 134.989,258.868 135.039,266.529 135.100 M232.386 144.700 L 230.200 147.000 232.500 144.814 C 234.637 142.782,234.983 142.400,234.686 142.400 C 234.624 142.400,233.589 143.435,232.386 144.700 M327.600 144.600 C 328.346 145.370,329.047 146.000,329.157 146.000 C 329.267 146.000,328.746 145.370,328.000 144.600 C 327.254 143.830,326.553 143.200,326.443 143.200 C 326.333 143.200,326.854 143.830,327.600 144.600 M106.900 151.500 C 113.885 151.561,125.315 151.561,132.300 151.500 C 139.285 151.439,133.570 151.388,119.600 151.388 C 105.630 151.388,99.915 151.439,106.900 151.500 M267.700 151.500 C 274.685 151.561,286.115 151.561,293.100 151.500 C 300.085 151.439,294.370 151.388,280.400 151.388 C 266.430 151.388,260.715 151.439,267.700 151.500 M83.375 156.500 L 82.200 157.800 83.500 156.625 C 84.215 155.979,84.800 155.394,84.800 155.325 C 84.800 155.016,84.470 155.288,83.375 156.500 M222.909 166.000 C 222.909 166.990,222.987 167.395,223.082 166.900 C 223.178 166.405,223.178 165.595,223.082 165.100 C 222.987 164.605,222.909 165.010,222.909 166.000 M78.914 167.800 C 78.917 168.900,78.995 169.303,79.087 168.695 C 79.179 168.086,79.177 167.186,79.082 166.695 C 78.987 166.203,78.911 166.700,78.914 167.800 M222.909 169.600 C 222.909 170.590,222.987 170.995,223.082 170.500 C 223.178 170.005,223.178 169.195,223.082 168.700 C 222.987 168.205,222.909 168.610,222.909 169.600 M244.400 179.400 C 245.146 180.170,245.847 180.800,245.957 180.800 C 246.067 180.800,245.546 180.170,244.800 179.400 C 244.054 178.630,243.353 178.000,243.243 178.000 C 243.133 178.000,243.654 178.630,244.400 179.400 M252.000 183.582 C 252.330 183.805,252.945 183.991,253.367 183.994 C 254.390 184.002,254.071 183.773,252.600 183.444 C 251.724 183.248,251.562 183.285,252.000 183.582 M232.200 190.800 C 233.283 191.900,234.260 192.800,234.370 192.800 C 234.480 192.800,233.683 191.900,232.600 190.800 C 231.517 189.700,230.540 188.800,230.430 188.800 C 230.320 188.800,231.117 189.700,232.200 190.800 M105.129 200.700 C 112.460 200.761,124.340 200.761,131.529 200.700 C 138.718 200.639,132.720 200.589,118.200 200.589 C 103.680 200.589,97.798 200.639,105.129 200.700 M265.529 200.700 C 272.860 200.761,284.740 200.761,291.929 200.700 C 299.118 200.639,293.120 200.589,278.600 200.589 C 264.080 200.589,258.198 200.639,265.529 200.700 M316.000 205.400 C 316.746 206.170,317.447 206.800,317.557 206.800 C 317.667 206.800,317.146 206.170,316.400 205.400 C 315.654 204.630,314.953 204.000,314.843 204.000 C 314.733 204.000,315.254 204.630,316.000 205.400 M176.920 216.800 C 176.920 218.010,176.995 218.505,177.087 217.900 C 177.178 217.295,177.178 216.305,177.087 215.700 C 176.995 215.095,176.920 215.590,176.920 216.800 M222.901 218.200 C 222.905 219.080,222.987 219.393,223.083 218.895 C 223.179 218.398,223.175 217.678,223.075 217.295 C 222.975 216.913,222.896 217.320,222.901 218.200 M243.200 227.325 C 243.200 227.394,243.785 227.979,244.500 228.625 L 245.800 229.800 244.625 228.500 C 243.530 227.288,243.200 227.016,243.200 227.325 M106.929 233.100 C 114.150 233.161,125.850 233.161,132.929 233.100 C 140.008 233.039,134.100 232.989,119.800 232.989 C 105.500 232.989,99.708 233.039,106.929 233.100 M196.100 233.098 C 198.245 233.170,201.755 233.170,203.900 233.098 C 206.045 233.026,204.290 232.967,200.000 232.967 C 195.710 232.967,193.955 233.026,196.100 233.098 M267.329 233.100 C 274.550 233.161,286.250 233.161,293.329 233.100 C 300.408 233.039,294.500 232.989,280.200 232.989 C 265.900 232.989,260.108 233.039,267.329 233.100 M191.769 241.600 C 191.769 246.110,191.827 247.955,191.898 245.700 C 191.970 243.445,191.970 239.755,191.898 237.500 C 191.827 235.245,191.769 237.090,191.769 241.600 M208.169 241.600 C 208.169 246.110,208.227 247.955,208.298 245.700 C 208.370 243.445,208.370 239.755,208.298 237.500 C 208.227 235.245,208.169 237.090,208.169 241.600 M71.800 240.000 C 73.106 241.320,74.265 242.400,74.375 242.400 C 74.485 242.400,73.506 241.320,72.200 240.000 C 70.894 238.680,69.735 237.600,69.625 237.600 C 69.515 237.600,70.494 238.680,71.800 240.000 M327.775 240.100 L 326.600 241.400 327.900 240.225 C 328.615 239.579,329.200 238.994,329.200 238.925 C 329.200 238.616,328.870 238.888,327.775 240.100 " stroke="none" fill="#fcce98" fill-rule="evenodd"></path><path id="path3" d="M88.800 135.600 C 87.396 136.050,88.863 136.065,91.000 135.623 L 92.600 135.292 91.200 135.286 C 90.430 135.283,89.350 135.424,88.800 135.600 M146.833 135.346 C 146.925 135.426,147.990 135.594,149.200 135.719 C 150.620 135.866,151.046 135.829,150.400 135.613 C 149.409 135.283,146.513 135.065,146.833 135.346 M249.400 135.620 C 248.861 135.865,249.254 135.905,250.600 135.741 C 251.700 135.607,252.675 135.431,252.767 135.349 C 253.117 135.036,250.161 135.274,249.400 135.620 M307.633 135.349 C 307.725 135.431,308.700 135.607,309.800 135.741 C 311.146 135.905,311.539 135.865,311.000 135.620 C 310.239 135.274,307.283 135.036,307.633 135.349 M85.600 136.400 C 84.805 136.914,85.804 136.914,87.000 136.400 L 87.800 136.056 87.000 136.034 C 86.560 136.022,85.930 136.187,85.600 136.400 M152.200 136.400 C 153.396 136.914,154.395 136.914,153.600 136.400 C 153.270 136.187,152.640 136.022,152.200 136.034 L 151.400 136.056 152.200 136.400 M246.200 136.400 C 245.696 136.617,245.622 136.744,246.000 136.744 C 246.330 136.744,246.960 136.589,247.400 136.400 C 247.904 136.183,247.978 136.056,247.600 136.056 C 247.270 136.056,246.640 136.211,246.200 136.400 M80.400 138.465 C 78.060 139.816,78.060 140.155,80.400 138.995 C 82.927 137.742,83.146 137.589,82.367 137.628 C 82.055 137.644,81.170 138.021,80.400 138.465 M156.433 137.752 C 156.937 138.211,160.843 139.993,160.646 139.674 C 160.516 139.464,159.600 138.912,158.609 138.446 C 156.964 137.673,156.014 137.370,156.433 137.752 M240.505 138.770 C 235.344 141.615,226.173 150.706,227.313 151.846 C 227.417 151.951,228.007 151.173,228.624 150.118 C 230.482 146.938,236.143 141.654,240.000 139.499 C 241.870 138.455,243.220 137.603,243.000 137.607 C 242.780 137.611,241.657 138.134,240.505 138.770 M320.400 139.307 C 320.400 139.394,321.323 140.064,322.452 140.795 C 323.580 141.526,325.626 143.131,326.999 144.362 C 328.991 146.149,328.908 146.035,326.585 143.795 C 324.160 141.456,320.400 138.728,320.400 139.307 M74.726 142.330 C 73.117 143.611,71.158 145.456,70.373 146.430 C 68.304 148.995,66.293 152.026,66.513 152.246 C 66.617 152.351,67.172 151.636,67.745 150.658 C 69.301 148.002,72.279 144.693,75.200 142.371 C 78.296 139.911,78.195 140.000,77.893 140.000 C 77.761 140.000,76.336 141.048,74.726 142.330 M162.600 141.037 C 165.523 143.953,169.475 147.456,168.576 146.335 C 167.929 145.529,166.590 144.177,165.600 143.329 C 163.766 141.759,161.875 140.314,162.600 141.037 M331.479 149.952 C 332.521 151.496,333.440 152.693,333.522 152.611 C 333.712 152.421,330.542 147.735,329.995 147.397 C 329.769 147.257,330.437 148.407,331.479 149.952 M171.029 150.100 C 172.779 152.647,173.224 153.087,172.141 151.200 C 170.719 148.719,170.214 148.000,169.897 148.000 C 169.726 148.000,170.236 148.945,171.029 150.100 M91.000 151.620 C 90.461 151.865,90.854 151.905,92.200 151.741 C 93.300 151.607,94.275 151.431,94.367 151.349 C 94.717 151.036,91.761 151.274,91.000 151.620 M144.833 151.349 C 144.925 151.431,145.900 151.607,147.000 151.741 C 148.346 151.905,148.739 151.865,148.200 151.620 C 147.439 151.274,144.483 151.036,144.833 151.349 M251.800 151.620 C 251.261 151.865,251.654 151.905,253.000 151.741 C 254.100 151.607,255.075 151.431,255.167 151.349 C 255.517 151.036,252.561 151.274,251.800 151.620 M305.633 151.344 C 305.725 151.424,306.610 151.596,307.600 151.727 C 308.802 151.886,309.134 151.847,308.600 151.610 C 307.836 151.272,305.286 151.043,305.633 151.344 M150.568 152.814 C 151.431 153.245,152.223 153.510,152.330 153.404 C 152.527 153.206,149.878 151.987,149.313 152.016 C 149.141 152.025,149.706 152.384,150.568 152.814 M247.996 152.977 C 245.567 154.243,242.205 157.623,240.991 160.018 C 239.566 162.831,239.779 163.012,241.305 160.285 C 243.058 157.152,245.669 154.607,248.581 153.194 C 249.911 152.549,250.730 152.024,250.400 152.029 C 250.070 152.033,248.988 152.460,247.996 152.977 M312.000 152.948 C 312.000 153.041,312.890 153.688,313.978 154.386 C 315.066 155.084,316.633 156.543,317.460 157.628 C 319.083 159.756,319.500 160.109,318.762 158.729 C 317.760 156.856,312.000 151.932,312.000 152.948 M333.617 153.500 C 333.639 153.901,335.162 156.670,335.183 156.349 C 335.211 155.935,334.005 153.200,333.795 153.200 C 333.688 153.200,333.608 153.335,333.617 153.500 M83.932 155.550 C 82.760 156.623,81.383 158.243,80.874 159.150 C 79.665 161.306,79.992 161.274,81.375 159.100 C 81.970 158.165,83.389 156.547,84.528 155.504 C 85.668 154.462,86.480 153.607,86.332 153.604 C 86.185 153.602,85.105 154.478,83.932 155.550 M154.288 154.972 C 155.217 155.781,156.522 157.104,157.188 157.912 C 157.855 158.721,158.400 159.240,158.400 159.067 C 158.400 158.588,154.331 154.389,153.409 153.917 C 152.964 153.689,153.360 154.164,154.288 154.972 M224.645 157.450 C 224.290 158.491,224.013 159.535,224.029 159.771 C 224.045 160.007,224.405 159.224,224.828 158.032 C 225.251 156.840,225.528 155.795,225.444 155.710 C 225.359 155.626,225.000 156.408,224.645 157.450 M64.200 156.800 C 64.050 157.273,64.017 157.750,64.127 157.860 C 64.237 157.970,64.450 157.673,64.600 157.200 C 64.750 156.727,64.783 156.250,64.673 156.140 C 64.563 156.030,64.350 156.327,64.200 156.800 M63.429 159.429 C 63.281 160.015,63.238 160.572,63.332 160.666 C 63.427 160.760,63.624 160.358,63.771 159.771 C 63.919 159.185,63.962 158.628,63.868 158.534 C 63.773 158.440,63.576 158.842,63.429 159.429 M175.256 158.800 C 175.256 159.130,175.411 159.760,175.600 160.200 C 175.817 160.704,175.944 160.778,175.944 160.400 C 175.944 160.070,175.789 159.440,175.600 159.000 C 175.383 158.496,175.256 158.422,175.256 158.800 M336.068 159.600 C 336.088 160.639,336.718 162.346,336.732 161.400 C 336.738 160.960,336.589 160.240,336.400 159.800 C 336.189 159.310,336.061 159.232,336.068 159.600 M223.476 161.610 C 223.330 162.155,223.227 163.050,223.246 163.600 C 223.271 164.318,223.384 164.157,223.649 163.027 C 224.055 161.295,223.900 160.025,223.476 161.610 M62.650 162.850 C 62.331 164.443,62.397 171.905,62.740 173.124 C 62.883 173.632,63.000 171.247,63.000 167.824 C 63.000 160.983,63.006 161.070,62.650 162.850 M176.269 163.800 C 176.396 165.120,176.568 166.275,176.650 166.367 C 176.941 166.690,176.716 163.386,176.379 162.400 C 176.158 161.752,176.120 162.245,176.269 163.800 M320.012 162.000 C 320.012 162.330,320.187 162.870,320.400 163.200 C 320.745 163.733,320.788 163.733,320.788 163.200 C 320.788 162.870,320.613 162.330,320.400 162.000 C 320.055 161.467,320.012 161.467,320.012 162.000 M337.054 164.749 C 337.367 167.615,337.445 167.587,329.124 167.594 C 321.445 167.601,321.649 167.662,321.169 165.214 L 320.892 163.800 320.846 165.271 C 320.763 167.935,321.085 168.031,329.737 167.909 L 337.400 167.800 337.522 166.542 C 337.589 165.850,337.459 164.680,337.232 163.942 C 336.872 162.770,336.850 162.872,337.054 164.749 M160.255 165.000 C 160.376 166.100,160.663 167.229,160.893 167.508 C 161.495 168.239,176.487 168.031,176.637 167.290 C 176.694 167.010,176.649 166.965,176.537 167.190 C 176.220 167.829,161.217 167.742,161.026 167.100 C 160.944 166.825,160.688 165.790,160.457 164.800 L 160.036 163.000 160.255 165.000 M239.456 164.084 C 239.321 164.588,239.228 165.450,239.249 166.000 C 239.272 166.589,239.431 166.271,239.636 165.225 C 240.003 163.352,239.873 162.527,239.456 164.084 M78.657 165.100 C 78.353 166.940,78.391 169.484,78.741 170.730 C 78.885 171.242,79.013 169.847,79.026 167.630 C 79.051 163.164,79.016 162.924,78.657 165.100 M239.228 169.833 C 239.244 170.475,239.416 171.360,239.610 171.800 C 239.847 172.334,239.886 172.002,239.727 170.800 C 239.446 168.680,239.188 168.180,239.228 169.833 M223.275 172.200 C 223.265 172.860,223.411 173.760,223.600 174.200 L 223.944 175.000 223.925 174.200 C 223.914 173.760,223.768 172.860,223.600 172.200 L 223.295 171.000 223.275 172.200 M79.200 172.546 C 79.200 173.022,80.348 175.600,80.559 175.600 C 80.669 175.600,80.479 174.925,80.138 174.100 C 79.496 172.551,79.200 172.061,79.200 172.546 M240.016 173.120 C 239.996 173.767,241.197 176.136,241.428 175.905 C 241.521 175.812,241.245 175.031,240.814 174.168 C 240.384 173.306,240.025 172.834,240.016 173.120 M63.234 175.400 C 63.222 175.840,63.387 176.470,63.600 176.800 C 64.114 177.595,64.114 176.596,63.600 175.400 L 63.256 174.600 63.234 175.400 M224.034 176.200 C 224.022 176.640,224.187 177.270,224.400 177.600 C 224.914 178.395,224.914 177.396,224.400 176.200 L 224.056 175.400 224.034 176.200 M81.031 176.400 C 81.756 177.793,83.352 179.618,84.727 180.627 L 86.200 181.707 84.600 180.147 C 83.720 179.289,82.487 177.959,81.859 177.193 C 81.232 176.427,80.859 176.070,81.031 176.400 M241.913 177.037 C 242.489 178.113,246.015 181.379,247.225 181.957 L 248.200 182.423 247.200 181.736 C 246.650 181.358,245.139 179.967,243.843 178.644 C 242.547 177.322,241.678 176.599,241.913 177.037 M64.800 180.147 C 64.800 180.595,66.675 184.124,67.379 185.000 C 67.732 185.440,67.356 184.540,66.542 183.000 C 64.922 179.935,64.800 179.734,64.800 180.147 M225.600 180.530 C 225.600 181.461,229.589 187.991,230.162 187.997 C 230.361 187.998,230.226 187.671,229.862 187.269 C 229.498 186.867,228.391 185.116,227.400 183.379 C 226.410 181.641,225.600 180.359,225.600 180.530 M86.400 181.790 C 86.400 182.024,88.639 183.201,89.080 183.199 C 89.256 183.198,88.811 182.838,88.090 182.399 C 86.751 181.582,86.400 181.456,86.400 181.790 M90.200 183.600 C 90.640 183.789,91.270 183.944,91.600 183.944 C 91.978 183.944,91.904 183.817,91.400 183.600 C 90.960 183.411,90.330 183.256,90.000 183.256 C 89.622 183.256,89.696 183.383,90.200 183.600 M97.800 184.282 C 107.720 184.534,149.185 184.581,148.326 184.340 C 147.817 184.197,135.250 184.100,120.400 184.125 C 105.550 184.150,95.380 184.221,97.800 184.282 M257.600 184.280 C 265.897 184.526,310.090 184.584,308.982 184.347 C 308.332 184.208,295.650 184.111,280.800 184.131 C 265.950 184.151,255.510 184.218,257.600 184.280 M151.000 185.200 C 152.196 185.714,153.195 185.714,152.400 185.200 C 152.070 184.987,151.440 184.822,151.000 184.834 L 150.200 184.856 151.000 185.200 M311.600 185.200 C 312.968 185.638,314.019 185.638,313.000 185.200 C 312.560 185.011,311.840 184.862,311.400 184.868 C 310.757 184.877,310.796 184.943,311.600 185.200 M68.742 187.000 C 70.191 189.057,70.786 189.748,70.955 189.571 C 71.045 189.477,70.394 188.590,69.508 187.600 C 68.622 186.610,68.278 186.340,68.742 187.000 M316.433 186.552 C 316.841 186.924,320.800 188.793,320.800 188.613 C 320.800 188.388,316.980 186.400,316.547 186.400 C 316.393 186.400,316.342 186.468,316.433 186.552 M159.420 188.314 C 159.629 188.486,160.869 189.341,162.176 190.214 C 163.483 191.086,165.553 192.676,166.776 193.746 L 169.000 195.691 166.690 193.454 C 164.515 191.347,160.005 188.000,159.342 188.000 C 159.176 188.000,159.211 188.141,159.420 188.314 M232.400 190.546 C 233.610 191.824,235.410 193.404,236.400 194.057 C 238.168 195.224,238.175 195.225,236.800 194.124 C 236.030 193.507,234.230 191.927,232.800 190.613 L 230.200 188.223 232.400 190.546 M321.200 188.908 C 321.310 189.027,322.488 189.924,323.818 190.901 C 327.358 193.502,331.137 197.882,333.294 201.885 C 334.336 203.818,335.191 205.186,335.194 204.925 C 335.221 202.704,329.391 194.943,325.000 191.352 C 323.328 189.985,320.535 188.189,321.200 188.908 M72.400 191.261 C 74.251 193.051,76.760 194.972,78.000 195.550 C 78.846 195.945,78.882 195.938,78.234 195.508 C 77.813 195.229,76.013 193.854,74.234 192.454 C 72.455 191.053,71.630 190.517,72.400 191.261 M238.579 195.565 C 238.872 196.040,243.978 198.480,244.351 198.325 C 244.516 198.256,243.236 197.529,241.507 196.709 C 239.778 195.889,238.460 195.374,238.579 195.565 M170.247 197.900 C 172.007 200.220,172.401 200.592,171.413 199.000 C 170.177 197.009,169.416 196.026,169.103 196.013 C 168.939 196.006,169.454 196.855,170.247 197.900 M245.400 198.800 C 245.536 199.020,246.042 199.187,246.524 199.172 C 247.369 199.145,247.371 199.131,246.600 198.800 C 245.499 198.327,245.108 198.327,245.400 198.800 M87.600 199.600 C 87.930 199.813,88.650 199.973,89.200 199.954 L 90.200 199.920 89.200 199.600 C 87.658 199.106,86.836 199.106,87.600 199.600 M248.200 199.581 C 248.968 199.929,251.110 200.156,250.767 199.853 C 250.675 199.772,249.880 199.596,249.000 199.462 C 247.885 199.293,247.642 199.329,248.200 199.581 M94.000 200.276 C 100.697 200.532,147.669 200.580,146.000 200.330 C 145.010 200.181,132.230 200.082,117.600 200.110 C 102.970 200.138,92.350 200.213,94.000 200.276 M254.600 200.274 C 260.838 200.529,308.470 200.580,306.800 200.330 C 305.810 200.181,293.030 200.082,278.400 200.109 C 263.770 200.137,253.060 200.211,254.600 200.274 M172.586 201.500 C 172.935 202.215,173.306 202.800,173.410 202.800 C 173.808 202.800,173.552 202.163,172.767 201.200 L 171.952 200.200 172.586 201.500 M148.600 201.200 C 149.040 201.389,149.670 201.544,150.000 201.544 C 150.378 201.544,150.304 201.417,149.800 201.200 C 149.360 201.011,148.730 200.856,148.400 200.856 C 148.022 200.856,148.096 200.983,148.600 201.200 M150.800 201.779 C 150.800 201.889,151.340 202.259,152.000 202.600 C 152.660 202.941,153.200 203.131,153.200 203.021 C 153.200 202.911,152.660 202.541,152.000 202.200 C 151.340 201.859,150.800 201.669,150.800 201.779 M313.600 203.069 C 314.941 204.014,317.668 206.762,318.492 208.000 C 318.858 208.550,319.167 208.811,319.179 208.580 C 319.214 207.875,315.379 203.846,313.946 203.083 C 312.711 202.424,312.682 202.423,313.600 203.069 M155.780 205.627 C 157.088 207.042,158.242 208.290,158.344 208.400 C 158.711 208.798,157.832 207.373,157.034 206.277 C 156.584 205.660,155.582 204.682,154.808 204.105 C 153.764 203.326,154.015 203.720,155.780 205.627 M175.234 207.600 C 175.246 207.930,175.411 208.560,175.600 209.000 L 175.944 209.800 175.966 209.000 C 175.978 208.560,175.813 207.930,175.600 207.600 C 175.255 207.067,175.215 207.067,175.234 207.600 M336.034 208.400 C 336.046 208.730,336.211 209.360,336.400 209.800 L 336.744 210.600 336.766 209.800 C 336.778 209.360,336.613 208.730,336.400 208.400 C 336.055 207.867,336.015 207.867,336.034 208.400 M158.400 208.929 C 158.400 209.237,159.970 212.169,159.984 211.887 C 160.009 211.392,158.865 208.800,158.620 208.800 C 158.499 208.800,158.400 208.858,158.400 208.929 M176.277 212.400 C 176.403 213.830,176.572 215.075,176.653 215.167 C 176.942 215.495,176.714 211.780,176.384 210.800 C 176.174 210.173,176.134 210.770,176.277 212.400 M320.012 211.200 C 320.012 211.530,320.187 212.070,320.400 212.400 C 320.745 212.933,320.788 212.933,320.788 212.400 C 320.788 212.070,320.613 211.530,320.400 211.200 C 320.055 210.667,320.012 210.667,320.012 211.200 M337.000 216.800 C 337.000 219.906,337.117 222.032,337.260 221.524 C 337.403 221.016,337.520 218.890,337.520 216.800 C 337.520 214.710,337.403 212.584,337.260 212.076 C 337.117 211.568,337.000 213.694,337.000 216.800 M160.200 216.761 C 160.200 219.186,160.322 220.862,160.472 220.485 C 160.815 219.621,160.806 214.506,160.460 213.276 C 160.317 212.768,160.200 214.337,160.200 216.761 M320.938 216.800 C 320.938 220.112,320.982 220.356,321.278 218.700 C 321.465 217.655,321.465 215.945,321.278 214.900 C 320.982 213.244,320.938 213.488,320.938 216.800 M62.440 218.700 C 62.462 219.745,62.622 221.050,62.797 221.600 C 62.982 222.184,63.025 221.477,62.899 219.900 L 62.684 217.200 70.499 217.200 L 78.313 217.200 78.709 219.100 C 78.977 220.385,79.121 220.652,79.153 219.926 C 79.179 219.335,79.024 218.390,78.810 217.826 L 78.420 216.800 70.410 216.800 L 62.400 216.800 62.440 218.700 M227.100 217.098 C 229.355 217.170,233.045 217.170,235.300 217.098 C 237.555 217.027,235.710 216.969,231.200 216.969 C 226.690 216.969,224.845 217.027,227.100 217.098 M239.275 219.000 C 239.265 219.660,239.411 220.560,239.600 221.000 L 239.944 221.800 239.925 221.000 C 239.914 220.560,239.768 219.660,239.600 219.000 L 239.295 217.800 239.275 219.000 M176.270 220.957 C 176.111 222.253,176.061 223.394,176.160 223.493 C 176.426 223.759,176.903 220.218,176.719 219.347 C 176.632 218.936,176.430 219.660,176.270 220.957 M223.240 220.633 C 223.262 221.275,223.433 222.250,223.620 222.800 C 223.849 223.474,223.884 223.149,223.728 221.800 C 223.469 219.550,223.179 218.859,223.240 220.633 M79.212 221.600 C 79.212 221.930,79.387 222.470,79.600 222.800 C 79.945 223.333,79.988 223.333,79.988 222.800 C 79.988 222.470,79.813 221.930,79.600 221.600 C 79.255 221.067,79.212 221.067,79.212 221.600 M319.520 223.619 C 318.941 224.929,318.552 226.000,318.656 226.000 C 318.926 226.000,320.913 221.580,320.727 221.394 C 320.642 221.308,320.098 222.310,319.520 223.619 M158.727 223.918 C 157.621 226.272,156.033 228.201,153.600 230.146 C 152.705 230.861,152.550 231.090,153.171 230.780 C 155.589 229.574,160.390 223.320,159.923 221.986 C 159.855 221.793,159.317 222.662,158.727 223.918 M63.268 223.800 C 63.262 224.240,63.411 224.960,63.600 225.400 C 64.038 226.419,64.038 225.368,63.600 224.000 C 63.343 223.196,63.277 223.157,63.268 223.800 M336.250 224.450 C 336.109 225.153,336.069 225.802,336.159 225.892 C 336.250 225.983,336.448 225.491,336.600 224.800 C 336.752 224.109,336.793 223.459,336.691 223.358 C 336.589 223.256,336.391 223.747,336.250 224.450 M175.646 224.467 C 175.621 224.834,175.496 225.464,175.370 225.867 C 175.152 226.562,175.163 226.563,175.597 225.887 C 175.848 225.496,175.973 224.866,175.873 224.487 C 175.711 223.868,175.688 223.866,175.646 224.467 M224.006 224.633 C 224.009 225.055,224.195 225.670,224.418 226.000 C 224.715 226.438,224.752 226.276,224.556 225.400 C 224.227 223.929,223.998 223.610,224.006 224.633 M81.197 225.960 C 81.793 227.115,84.963 230.252,86.149 230.861 C 86.617 231.102,86.243 230.638,85.317 229.832 C 84.391 229.026,82.974 227.609,82.168 226.683 C 81.362 225.757,80.925 225.432,81.197 225.960 M242.305 226.638 C 244.113 229.237,247.637 231.819,250.400 232.569 C 250.950 232.718,250.230 232.262,248.800 231.554 C 247.178 230.752,245.305 229.352,243.822 227.834 C 242.514 226.495,241.831 225.957,242.305 226.638 M316.090 228.312 C 315.149 229.302,314.429 230.162,314.490 230.222 C 314.631 230.363,316.318 228.856,317.570 227.472 C 319.210 225.658,317.908 226.397,316.090 228.312 M64.832 228.713 C 64.796 229.286,66.700 233.200,67.013 233.200 C 67.123 233.200,66.786 232.345,66.263 231.300 C 65.740 230.255,65.211 229.130,65.088 228.800 C 64.941 228.409,64.852 228.379,64.832 228.713 M225.600 229.347 C 225.600 229.780,227.588 233.600,227.813 233.600 C 227.923 233.600,227.539 232.655,226.959 231.500 C 225.843 229.279,225.600 228.894,225.600 229.347 M312.700 231.029 C 311.205 231.840,311.296 232.178,312.800 231.400 C 313.460 231.059,314.000 230.694,314.000 230.590 C 314.000 230.332,313.957 230.347,312.700 231.029 M333.099 232.432 C 332.495 233.514,332.083 234.400,332.183 234.400 C 332.457 234.400,334.521 230.788,334.347 230.614 C 334.265 230.532,333.703 231.350,333.099 232.432 M89.200 232.400 C 89.530 232.613,90.070 232.788,90.400 232.788 C 90.933 232.788,90.933 232.745,90.400 232.400 C 90.070 232.187,89.530 232.012,89.200 232.012 C 88.667 232.012,88.667 232.055,89.200 232.400 M148.800 232.400 C 148.267 232.745,148.267 232.788,148.800 232.788 C 149.130 232.788,149.670 232.613,150.000 232.400 C 150.533 232.055,150.533 232.012,150.000 232.012 C 149.670 232.012,149.130 232.187,148.800 232.400 M170.901 234.938 C 168.972 237.872,164.096 242.641,161.425 244.206 C 160.401 244.806,159.648 245.381,159.751 245.484 C 160.108 245.842,164.613 242.482,167.131 239.981 C 169.526 237.601,173.055 232.922,172.713 232.580 C 172.626 232.493,171.811 233.554,170.901 234.938 M92.641 233.277 C 94.583 233.622,145.363 233.599,146.977 233.253 C 147.624 233.114,135.312 233.000,119.618 233.000 C 103.923 233.000,91.784 233.125,92.641 233.277 M253.023 233.253 C 254.637 233.599,305.417 233.622,307.359 233.277 C 308.216 233.125,296.077 233.000,280.382 233.000 C 264.688 233.000,252.376 233.114,253.023 233.253 M192.000 233.500 C 192.000 233.665,195.600 233.800,200.000 233.800 C 204.400 233.800,208.000 233.665,208.000 233.500 C 208.000 233.335,204.400 233.200,200.000 233.200 C 195.600 233.200,192.000 233.335,192.000 233.500 M67.785 234.772 C 68.119 235.416,69.788 237.367,71.496 239.106 C 73.573 241.222,73.795 241.397,72.166 239.635 C 70.828 238.186,69.229 236.235,68.613 235.300 C 67.320 233.336,66.906 233.072,67.785 234.772 M330.627 236.200 C 330.040 236.970,329.703 237.598,329.880 237.595 C 330.056 237.592,330.607 236.962,331.104 236.195 C 332.268 234.397,332.000 234.400,330.627 236.200 M229.808 236.600 C 231.314 238.761,233.076 240.623,235.000 242.090 C 236.107 242.933,235.854 242.583,234.178 240.954 C 232.845 239.659,231.066 237.790,230.224 236.800 C 228.750 235.068,228.735 235.061,229.808 236.600 M327.400 239.920 C 326.300 240.966,324.770 242.327,324.000 242.944 C 323.210 243.576,323.003 243.864,323.526 243.605 C 324.424 243.158,330.002 238.031,329.600 238.022 C 329.490 238.019,328.500 238.873,327.400 239.920 M75.207 242.737 C 75.216 243.074,79.227 245.707,79.427 245.506 C 79.510 245.424,78.592 244.707,77.389 243.915 C 76.185 243.122,75.203 242.592,75.207 242.737 M239.200 244.998 C 239.200 245.267,243.249 247.284,243.429 247.105 C 243.511 247.023,242.593 246.473,241.389 245.882 C 240.185 245.292,239.200 244.894,239.200 244.998 M318.800 246.000 C 317.590 246.639,316.741 247.171,316.913 247.181 C 317.338 247.207,321.200 245.236,321.200 244.993 C 321.200 244.726,321.255 244.703,318.800 246.000 M86.200 248.400 C 86.640 248.589,87.360 248.738,87.800 248.732 C 88.443 248.723,88.404 248.657,87.600 248.400 C 86.232 247.962,85.181 247.962,86.200 248.400 M151.600 248.400 C 150.796 248.657,150.757 248.723,151.400 248.732 C 151.840 248.738,152.560 248.589,153.000 248.400 C 154.019 247.962,152.968 247.962,151.600 248.400 M246.800 248.400 C 247.130 248.613,247.760 248.778,248.200 248.766 L 249.000 248.744 248.200 248.400 C 247.004 247.886,246.005 247.886,246.800 248.400 M312.200 248.400 L 311.400 248.744 312.200 248.766 C 312.640 248.778,313.270 248.613,313.600 248.400 C 314.395 247.886,313.396 247.886,312.200 248.400 M90.076 249.260 C 90.584 249.403,103.870 249.520,119.600 249.520 C 135.330 249.520,148.616 249.403,149.124 249.260 C 149.632 249.117,136.346 249.000,119.600 249.000 C 102.854 249.000,89.568 249.117,90.076 249.260 M250.623 249.253 C 252.184 249.588,308.735 249.595,309.924 249.260 C 310.432 249.117,297.032 249.000,280.146 249.000 C 263.261 249.000,249.975 249.114,250.623 249.253 M195.900 249.498 C 198.155 249.570,201.845 249.570,204.100 249.498 C 206.355 249.427,204.510 249.369,200.000 249.369 C 195.490 249.369,193.645 249.427,195.900 249.498 " stroke="none" fill="#fcbc72" fill-rule="evenodd"></path><path id="path4" d="M106.300 134.700 C 113.615 134.761,125.585 134.761,132.900 134.700 C 140.215 134.639,134.230 134.589,119.600 134.589 C 104.970 134.589,98.985 134.639,106.300 134.700 M267.100 134.700 C 274.415 134.761,286.385 134.761,293.700 134.700 C 301.015 134.639,295.030 134.589,280.400 134.589 C 265.770 134.589,259.785 134.639,267.100 134.700 M89.500 135.082 C 89.995 135.178,90.805 135.178,91.300 135.082 C 91.795 134.987,91.390 134.909,90.400 134.909 C 89.410 134.909,89.005 134.987,89.500 135.082 M147.900 135.082 C 148.395 135.178,149.205 135.178,149.700 135.082 C 150.195 134.987,149.790 134.909,148.800 134.909 C 147.810 134.909,147.405 134.987,147.900 135.082 M248.846 135.163 C 248.505 135.379,249.042 135.441,250.246 135.324 C 252.955 135.060,253.333 134.868,251.200 134.838 C 250.210 134.824,249.151 134.970,248.846 135.163 M307.800 134.998 C 308.818 135.343,312.062 135.485,311.554 135.163 C 311.249 134.970,310.190 134.824,309.200 134.838 C 308.210 134.852,307.580 134.924,307.800 134.998 M85.200 136.018 C 84.762 136.315,84.924 136.352,85.800 136.156 C 87.271 135.827,87.590 135.598,86.567 135.606 C 86.145 135.609,85.530 135.795,85.200 136.018 M152.800 136.003 C 155.321 136.846,156.488 137.154,156.247 136.914 C 155.857 136.524,153.090 135.608,152.400 135.640 C 152.070 135.656,152.250 135.819,152.800 136.003 M244.123 136.545 C 242.981 137.027,241.901 137.566,241.723 137.744 C 241.545 137.922,242.390 137.668,243.600 137.180 C 244.810 136.693,246.340 136.156,247.000 135.988 C 248.077 135.713,248.097 135.681,247.200 135.676 C 246.650 135.672,245.265 136.064,244.123 136.545 M313.400 135.988 C 314.060 136.156,315.590 136.690,316.800 137.175 C 318.010 137.660,318.820 137.895,318.600 137.696 C 317.907 137.069,313.931 135.598,313.047 135.641 C 312.431 135.671,312.527 135.765,313.400 135.988 M159.053 138.540 C 163.769 141.083,169.216 145.948,171.299 149.479 C 172.253 151.094,172.644 151.231,171.834 149.666 C 170.206 146.518,163.176 140.196,158.916 138.049 C 156.242 136.701,156.348 137.082,159.053 138.540 M319.600 138.420 C 320.987 139.361,321.778 139.635,320.800 138.836 C 320.250 138.386,319.620 138.017,319.400 138.015 C 319.180 138.013,319.270 138.196,319.600 138.420 M77.195 139.868 C 73.098 142.609,68.337 147.466,66.746 150.527 C 66.112 151.746,66.457 151.364,68.494 148.591 C 70.834 145.406,74.025 142.346,77.100 140.338 C 79.270 138.922,79.914 138.400,79.495 138.400 C 79.437 138.400,78.402 139.061,77.195 139.868 M237.578 139.932 C 233.330 142.637,225.108 152.041,226.113 153.046 C 226.192 153.126,226.681 152.428,227.198 151.496 C 229.518 147.311,233.589 142.960,237.641 140.335 C 239.385 139.205,239.869 138.800,239.478 138.800 C 239.411 138.800,238.556 139.310,237.578 139.932 M327.600 144.430 C 329.479 146.321,331.695 149.049,332.553 150.527 C 334.359 153.636,334.961 154.138,333.363 151.202 C 331.910 148.534,328.593 144.568,326.169 142.603 C 324.846 141.530,325.316 142.130,327.600 144.430 M106.500 151.900 C 113.705 151.961,125.495 151.961,132.700 151.900 C 139.905 151.839,134.010 151.789,119.600 151.789 C 105.190 151.789,99.295 151.839,106.500 151.900 M267.329 151.900 C 274.550 151.961,286.250 151.961,293.329 151.900 C 300.408 151.839,294.500 151.789,280.200 151.789 C 265.900 151.789,260.108 151.839,267.329 151.900 M91.300 152.276 C 91.685 152.376,92.315 152.376,92.700 152.276 C 93.085 152.175,92.770 152.093,92.000 152.093 C 91.230 152.093,90.915 152.175,91.300 152.276 M146.500 152.276 C 146.885 152.376,147.515 152.376,147.900 152.276 C 148.285 152.175,147.970 152.093,147.200 152.093 C 146.430 152.093,146.115 152.175,146.500 152.276 M250.200 152.652 C 249.210 153.136,249.175 153.193,250.000 152.981 C 250.550 152.839,251.720 152.582,252.600 152.411 L 254.200 152.100 252.800 152.083 C 252.030 152.073,250.860 152.329,250.200 152.652 M307.800 152.411 C 308.680 152.582,309.850 152.840,310.400 152.983 C 311.038 153.149,310.912 153.019,310.054 152.622 C 309.314 152.280,308.144 152.023,307.454 152.050 C 306.285 152.097,306.308 152.121,307.800 152.411 M148.800 152.534 C 148.800 152.637,149.381 152.924,150.091 153.172 C 150.801 153.419,151.206 153.457,150.991 153.256 C 150.535 152.829,148.800 152.258,148.800 152.534 M87.824 153.413 C 86.825 154.168,87.195 154.163,88.654 153.402 C 89.284 153.074,89.530 152.810,89.200 152.815 C 88.870 152.821,88.251 153.090,87.824 153.413 M246.409 154.700 C 245.239 155.525,243.837 156.830,243.293 157.600 L 242.305 159.000 243.563 157.535 C 244.256 156.729,245.717 155.495,246.811 154.793 C 248.564 153.668,249.110 153.200,248.668 153.200 C 248.596 153.200,247.579 153.875,246.409 154.700 M312.143 153.692 C 315.001 155.647,316.590 157.113,317.804 158.916 C 318.572 160.056,319.200 160.844,319.200 160.667 C 319.200 159.320,314.756 154.731,312.400 153.645 C 311.556 153.256,311.516 153.263,312.143 153.692 M153.469 155.073 C 155.811 156.861,156.667 157.870,158.100 160.537 C 158.705 161.663,159.200 162.368,159.200 162.104 C 159.200 160.248,153.487 153.623,151.869 153.604 C 151.688 153.602,152.408 154.263,153.469 155.073 M224.996 155.072 C 224.658 155.881,224.433 156.700,224.497 156.891 C 224.561 157.082,224.916 156.420,225.287 155.419 C 226.093 153.245,225.870 152.979,224.996 155.072 M334.433 153.632 C 334.415 153.760,334.842 154.930,335.383 156.232 C 335.924 157.534,336.363 158.330,336.359 158.000 C 336.351 157.401,334.496 153.193,334.433 153.632 M64.196 155.472 C 63.858 156.281,63.633 157.100,63.697 157.291 C 63.761 157.482,64.116 156.820,64.487 155.819 C 65.293 153.645,65.070 153.379,64.196 155.472 M84.270 156.062 L 82.200 158.125 84.400 156.190 C 85.610 155.125,86.675 154.197,86.767 154.127 C 86.858 154.057,86.800 154.000,86.637 154.000 C 86.474 154.000,85.409 154.928,84.270 156.062 M175.408 157.600 C 176.157 160.565,176.318 160.998,176.359 160.146 C 176.382 159.676,176.120 158.686,175.778 157.946 C 175.369 157.061,175.243 156.942,175.408 157.600 M223.833 158.100 C 223.027 160.945,222.807 162.092,222.850 163.246 C 222.891 164.375,222.955 164.267,223.231 162.600 C 223.413 161.500,223.732 159.925,223.939 159.100 C 224.276 157.757,224.182 156.869,223.833 158.100 M63.057 158.700 C 62.948 159.085,62.755 160.030,62.628 160.800 C 62.338 162.549,62.960 161.221,63.330 159.300 C 63.593 157.934,63.395 157.499,63.057 158.700 M81.000 160.000 C 80.659 160.660,80.469 161.200,80.579 161.200 C 80.689 161.200,81.059 160.660,81.400 160.000 C 81.741 159.340,81.931 158.800,81.821 158.800 C 81.711 158.800,81.341 159.340,81.000 160.000 M336.658 160.000 C 336.975 161.725,337.202 162.051,337.194 160.767 C 337.191 160.235,337.011 159.530,336.794 159.200 C 336.518 158.778,336.477 159.015,336.658 160.000 M240.440 162.679 C 240.152 163.553,240.004 164.612,240.111 165.034 C 240.250 165.575,240.321 165.469,240.354 164.674 C 240.379 164.054,240.592 163.189,240.826 162.752 C 241.060 162.314,241.187 161.761,241.108 161.524 C 241.029 161.286,240.728 161.806,240.440 162.679 M319.595 162.381 C 319.804 163.111,320.086 163.819,320.220 163.954 C 320.596 164.329,319.944 161.852,319.555 161.427 C 319.368 161.222,319.385 161.651,319.595 162.381 M62.158 167.800 C 62.158 170.880,62.221 172.087,62.297 170.482 C 62.373 168.878,62.373 166.358,62.296 164.882 C 62.219 163.407,62.157 164.720,62.158 167.800 M176.920 164.400 C 176.920 165.610,176.995 166.105,177.087 165.500 C 177.178 164.895,177.178 163.905,177.087 163.300 C 176.995 162.695,176.920 163.190,176.920 164.400 M159.701 165.000 C 159.705 165.880,159.787 166.193,159.883 165.695 C 159.979 165.198,159.975 164.478,159.875 164.095 C 159.775 163.713,159.696 164.120,159.701 165.000 M337.672 165.708 L 337.600 168.016 329.300 167.908 L 321.000 167.800 320.760 166.000 L 320.520 164.200 320.460 165.820 C 320.365 168.380,320.435 168.400,329.493 168.400 C 338.603 168.400,338.147 168.566,337.896 165.349 L 337.744 163.400 337.672 165.708 M79.346 167.800 C 79.347 170.000,79.414 170.849,79.495 169.687 C 79.576 168.524,79.576 166.724,79.493 165.687 C 79.411 164.649,79.345 165.600,79.346 167.800 M222.531 167.800 C 222.533 169.340,222.605 169.921,222.692 169.091 C 222.779 168.261,222.777 167.001,222.689 166.291 C 222.600 165.581,222.529 166.260,222.531 167.800 M239.714 167.800 C 239.717 168.900,239.795 169.303,239.887 168.695 C 239.979 168.086,239.977 167.186,239.882 166.695 C 239.787 166.203,239.711 166.700,239.714 167.800 M160.012 167.292 C 159.994 168.322,161.059 168.438,169.367 168.314 C 175.107 168.227,176.959 168.077,177.037 167.690 C 177.094 167.410,177.049 167.365,176.937 167.590 C 176.538 168.395,160.910 168.120,160.432 167.300 C 160.048 166.641,160.024 166.641,160.012 167.292 M222.909 172.800 C 222.909 173.790,222.987 174.195,223.082 173.700 C 223.178 173.205,223.178 172.395,223.082 171.900 C 222.987 171.405,222.909 171.810,222.909 172.800 M80.020 173.268 C 80.784 175.933,85.536 181.600,87.007 181.600 C 87.185 181.600,86.461 180.925,85.397 180.100 C 83.381 178.537,80.400 174.397,80.400 173.162 C 80.400 172.769,80.232 172.343,80.026 172.216 C 79.794 172.073,79.792 172.473,80.020 173.268 M240.630 173.200 C 241.350 175.857,245.010 180.319,247.395 181.448 L 248.600 182.018 247.600 181.310 C 245.077 179.525,242.688 176.880,241.573 174.639 C 240.906 173.298,240.481 172.650,240.630 173.200 M62.658 175.000 C 62.792 175.880,63.056 176.870,63.244 177.200 C 63.658 177.926,63.234 175.371,62.746 174.200 C 62.536 173.695,62.503 173.991,62.658 175.000 M223.462 176.029 C 223.610 176.783,223.982 177.940,224.288 178.600 C 224.873 179.864,224.877 179.893,224.008 176.468 C 223.550 174.662,223.125 174.321,223.462 176.029 M63.600 178.284 C 63.600 178.851,64.763 181.600,65.002 181.600 C 65.107 181.600,64.896 180.835,64.532 179.900 C 63.795 178.007,63.600 177.669,63.600 178.284 M249.600 182.600 C 250.150 182.914,250.960 183.170,251.400 183.168 C 251.840 183.166,251.480 182.905,250.600 182.588 C 248.596 181.866,248.322 181.870,249.600 182.600 M226.000 182.647 C 226.000 185.241,234.767 194.334,239.690 196.846 C 242.134 198.093,241.421 197.433,238.508 195.753 C 235.092 193.782,229.474 188.191,227.500 184.797 C 226.675 183.379,226.000 182.411,226.000 182.647 M90.800 183.200 C 92.168 183.638,93.219 183.638,92.200 183.200 C 91.760 183.011,91.040 182.862,90.600 182.868 C 89.957 182.877,89.996 182.943,90.800 183.200 M66.000 183.726 C 66.000 185.430,73.921 193.968,76.800 195.368 C 77.130 195.528,76.860 195.248,76.200 194.744 C 73.493 192.680,69.394 188.440,67.751 186.004 C 66.788 184.577,66.000 183.551,66.000 183.726 M99.800 183.887 C 115.111 184.147,149.912 184.176,149.286 183.928 C 148.909 183.779,136.180 183.684,121.000 183.717 C 105.820 183.751,96.280 183.828,99.800 183.887 M267.700 183.900 C 275.345 183.961,287.855 183.961,295.500 183.900 C 303.145 183.839,296.890 183.789,281.600 183.789 C 266.310 183.789,260.055 183.839,267.700 183.900 M150.433 184.543 C 150.525 184.621,151.230 184.801,152.000 184.942 C 152.985 185.123,153.222 185.082,152.800 184.806 C 152.258 184.450,150.037 184.203,150.433 184.543 M311.233 184.543 C 311.325 184.621,312.030 184.801,312.800 184.942 C 313.785 185.123,314.022 185.082,313.600 184.806 C 313.058 184.450,310.837 184.203,311.233 184.543 M314.433 185.335 C 314.819 185.647,318.000 186.777,318.000 186.602 C 318.000 186.363,315.251 185.200,314.684 185.200 C 314.455 185.200,314.342 185.261,314.433 185.335 M157.403 186.805 C 157.537 187.022,157.820 187.200,158.031 187.200 C 158.242 187.200,159.587 187.912,161.020 188.783 C 162.454 189.654,163.522 190.198,163.395 189.992 C 163.141 189.582,159.036 187.118,157.879 186.681 C 157.446 186.518,157.256 186.567,157.403 186.805 M318.433 186.929 C 319.093 187.439,322.400 189.194,322.400 189.034 C 322.400 188.776,319.036 186.800,318.598 186.800 C 318.416 186.800,318.342 186.858,318.433 186.929 M323.800 190.081 C 325.382 191.289,330.337 196.229,331.743 198.000 L 332.854 199.400 331.944 198.000 C 330.547 195.850,326.407 191.645,324.400 190.338 C 323.410 189.693,323.140 189.577,323.800 190.081 M166.016 192.452 C 167.234 193.633,169.010 195.500,169.962 196.600 C 170.914 197.700,171.447 198.225,171.147 197.766 C 169.940 195.925,167.694 193.474,165.800 191.932 L 163.800 190.304 166.016 192.452 M78.400 196.364 C 78.950 196.814,79.580 197.183,79.800 197.185 C 80.228 197.188,79.505 196.634,78.200 195.960 C 77.669 195.685,77.736 195.821,78.400 196.364 M80.400 197.394 C 80.400 197.838,86.751 200.182,87.076 199.858 C 87.169 199.765,86.200 199.369,84.922 198.979 C 83.645 198.588,82.420 198.146,82.200 197.996 C 81.625 197.605,80.400 197.195,80.400 197.394 M242.400 198.200 C 242.950 198.514,243.670 198.771,244.000 198.770 C 244.330 198.769,243.994 198.506,243.254 198.184 C 241.551 197.445,241.094 197.453,242.400 198.200 M171.949 199.400 C 172.165 199.840,172.634 200.560,172.993 201.000 L 173.644 201.800 173.251 201.000 C 173.035 200.560,172.566 199.840,172.207 199.400 L 171.556 198.600 171.949 199.400 M247.621 200.021 C 248.155 200.360,251.142 200.581,250.767 200.255 C 250.675 200.175,249.799 200.008,248.821 199.882 C 247.670 199.735,247.246 199.784,247.621 200.021 M88.100 200.276 C 88.485 200.376,89.115 200.376,89.500 200.276 C 89.885 200.175,89.570 200.093,88.800 200.093 C 88.030 200.093,87.715 200.175,88.100 200.276 M120.000 201.217 C 135.290 201.343,148.340 201.578,149.000 201.739 C 149.727 201.917,149.570 201.792,148.600 201.422 C 147.214 200.894,143.341 200.824,119.600 200.901 L 92.200 200.989 120.000 201.217 M266.929 201.100 C 274.590 201.161,287.010 201.161,294.529 201.100 C 302.048 201.039,295.780 200.989,280.600 200.989 C 265.420 200.989,259.268 201.039,266.929 201.100 M308.446 201.380 C 308.581 201.514,309.289 201.796,310.019 202.005 C 310.749 202.215,311.178 202.232,310.973 202.045 C 310.548 201.656,308.071 201.004,308.446 201.380 M313.007 203.457 C 318.002 206.772,320.335 211.058,320.481 217.194 L 320.563 220.600 320.698 217.301 C 320.949 211.140,315.681 202.400,311.715 202.400 C 311.550 202.400,312.131 202.876,313.007 203.457 M152.800 203.584 C 154.759 205.226,156.372 206.230,154.800 204.828 C 154.030 204.142,153.040 203.393,152.600 203.163 C 152.056 202.880,152.120 203.015,152.800 203.584 M157.122 207.890 C 157.605 208.569,158.361 209.907,158.801 210.862 C 159.241 211.818,159.492 212.150,159.359 211.600 C 159.055 210.344,157.347 207.338,156.717 206.948 C 156.456 206.787,156.638 207.211,157.122 207.890 M175.844 207.800 C 176.173 209.271,176.402 209.590,176.394 208.567 C 176.391 208.145,176.205 207.530,175.982 207.200 C 175.685 206.762,175.648 206.924,175.844 207.800 M336.828 209.233 C 336.844 209.765,337.019 210.560,337.219 211.000 C 337.471 211.558,337.507 211.315,337.338 210.200 C 337.055 208.343,336.787 207.836,336.828 209.233 M176.920 212.800 C 176.920 214.010,176.995 214.505,177.087 213.900 C 177.178 213.295,177.178 212.305,177.087 211.700 C 176.995 211.095,176.920 211.590,176.920 212.800 M337.754 216.800 C 337.754 219.550,337.818 220.675,337.896 219.300 C 337.974 217.925,337.974 215.675,337.896 214.300 C 337.818 212.925,337.754 214.050,337.754 216.800 M159.701 214.200 C 159.705 215.080,159.787 215.393,159.883 214.895 C 159.979 214.398,159.975 213.678,159.875 213.295 C 159.775 212.913,159.696 213.320,159.701 214.200 M62.267 216.667 C 61.903 217.030,61.981 221.608,62.368 222.598 C 62.539 223.036,62.593 221.908,62.488 220.089 L 62.296 216.783 70.648 216.892 L 79.000 217.000 79.102 218.400 C 79.221 220.016,79.990 222.828,80.463 223.373 C 80.640 223.578,80.585 223.128,80.338 222.373 C 80.092 221.618,79.806 220.190,79.702 219.200 C 79.599 218.210,79.331 217.175,79.108 216.900 C 78.671 216.362,62.791 216.142,62.267 216.667 M222.554 216.977 C 222.432 217.294,222.417 217.879,222.520 218.277 C 222.642 218.747,222.723 218.612,222.754 217.892 L 222.800 216.784 231.082 216.892 L 239.364 217.000 239.642 218.000 L 239.920 219.000 239.960 217.943 C 240.016 216.453,239.702 216.400,230.755 216.400 C 224.174 216.400,222.736 216.501,222.554 216.977 M159.540 219.600 C 159.407 220.590,159.175 221.850,159.027 222.400 C 158.873 222.966,159.034 222.797,159.397 222.009 C 159.749 221.245,159.980 219.985,159.910 219.209 C 159.786 217.831,159.778 217.839,159.540 219.600 M176.920 220.800 C 176.920 222.010,176.995 222.505,177.087 221.900 C 177.178 221.295,177.178 220.305,177.087 219.700 C 176.995 219.095,176.920 219.590,176.920 220.800 M222.909 221.200 C 222.909 222.190,222.987 222.595,223.082 222.100 C 223.178 221.605,223.178 220.795,223.082 220.300 C 222.987 219.805,222.909 220.210,222.909 221.200 M240.640 222.400 C 240.887 223.324,242.000 225.254,242.000 224.760 C 242.000 224.641,241.634 223.836,241.186 222.971 C 240.718 222.068,240.485 221.825,240.640 222.400 M318.437 224.727 C 318.009 225.566,317.375 226.489,317.029 226.776 C 316.683 227.063,316.400 227.470,316.400 227.680 C 316.400 227.890,316.825 227.553,317.344 226.931 C 318.351 225.724,319.755 223.200,319.418 223.200 C 319.307 223.200,318.866 223.887,318.437 224.727 M62.841 224.173 C 62.794 225.053,64.313 229.606,64.843 230.177 C 65.036 230.384,64.810 229.484,64.341 228.177 C 63.873 226.870,63.353 225.260,63.186 224.600 C 63.001 223.869,62.866 223.702,62.841 224.173 M157.961 224.500 C 156.464 227.386,152.762 230.557,149.539 231.714 C 148.566 232.064,140.435 232.252,119.800 232.403 L 91.400 232.611 119.406 232.705 C 150.592 232.811,149.151 232.924,153.327 230.050 C 155.558 228.516,159.597 223.600,158.628 223.600 C 158.518 223.600,158.218 224.005,157.961 224.500 M336.846 224.173 C 336.795 225.033,335.262 229.573,334.812 230.200 C 334.408 230.761,333.989 232.000,334.203 232.000 C 334.802 232.000,337.324 225.033,337.071 224.075 C 336.924 223.519,336.885 223.537,336.846 224.173 M80.800 224.248 C 80.800 224.458,81.353 225.253,82.029 226.015 L 83.258 227.400 82.145 225.800 C 81.533 224.920,80.980 224.125,80.916 224.033 C 80.852 223.942,80.800 224.038,80.800 224.248 M242.314 225.800 C 242.547 226.240,243.510 227.320,244.455 228.200 C 246.152 229.780,245.609 229.097,242.073 225.200 C 241.973 225.090,242.082 225.360,242.314 225.800 M224.198 227.165 C 224.675 228.713,225.594 230.800,225.800 230.800 C 226.014 230.800,224.449 226.707,224.117 226.400 C 223.998 226.290,224.034 226.634,224.198 227.165 M174.713 228.981 C 174.342 229.981,174.117 230.800,174.214 230.800 C 174.493 230.800,175.631 227.894,175.503 227.509 C 175.439 227.318,175.084 227.980,174.713 228.981 M84.400 228.772 C 85.170 229.458,86.160 230.207,86.600 230.437 C 87.553 230.934,86.041 229.619,84.200 228.351 C 83.185 227.651,83.216 227.716,84.400 228.772 M314.015 229.616 C 312.208 231.161,312.651 231.149,314.600 229.600 C 315.431 228.940,315.950 228.407,315.755 228.416 C 315.560 228.425,314.777 228.965,314.015 229.616 M247.828 230.759 C 249.690 232.747,250.694 232.806,280.594 232.705 L 308.600 232.611 280.200 232.403 C 251.864 232.195,250.985 232.151,248.356 230.795 C 247.717 230.465,247.542 230.454,247.828 230.759 M88.211 231.340 C 88.645 231.637,89.540 231.993,90.200 232.130 C 91.344 232.367,91.353 232.359,90.400 231.948 C 89.850 231.711,89.087 231.356,88.705 231.159 C 87.647 230.612,87.321 230.731,88.211 231.340 M226.000 231.472 C 226.000 232.094,229.733 237.697,230.615 238.400 C 231.029 238.730,230.801 238.280,230.107 237.400 C 229.414 236.520,228.206 234.731,227.423 233.424 C 226.640 232.116,226.000 231.238,226.000 231.472 M66.015 232.600 C 66.017 232.820,66.386 233.450,66.836 234.000 C 67.379 234.664,67.515 234.731,67.240 234.200 C 66.566 232.895,66.012 232.172,66.015 232.600 M191.868 232.901 C 191.253 233.350,191.194 234.245,191.291 241.601 L 191.400 249.800 199.600 249.812 L 207.800 249.824 199.700 249.704 L 191.600 249.584 191.600 241.672 C 191.600 231.896,190.741 232.800,200.031 232.800 C 209.212 232.800,208.353 231.885,208.500 241.831 L 208.618 249.800 208.709 241.729 C 208.787 234.842,208.708 233.565,208.171 233.029 C 207.343 232.200,192.980 232.087,191.868 232.901 M332.215 234.878 C 328.944 239.931,323.435 244.529,317.600 247.079 C 315.950 247.800,314.829 248.392,315.109 248.395 C 317.251 248.416,324.633 243.818,328.226 240.226 C 330.478 237.974,334.254 232.921,333.929 232.595 C 333.850 232.517,333.079 233.544,332.215 234.878 M171.486 235.142 C 169.923 237.504,166.270 241.300,163.707 243.225 C 160.676 245.501,160.308 245.873,161.989 244.957 C 163.715 244.016,171.143 236.637,172.123 234.889 C 173.118 233.113,172.726 233.269,171.486 235.142 M68.736 236.800 C 71.293 240.728,80.056 247.600,82.509 247.600 C 82.762 247.600,81.716 246.951,80.184 246.159 C 75.749 243.862,71.848 240.538,68.482 236.186 C 67.978 235.534,68.092 235.810,68.736 236.800 M231.600 239.552 C 231.600 239.942,233.155 241.398,233.323 241.164 C 233.387 241.074,233.026 240.601,232.520 240.114 C 232.014 239.627,231.600 239.374,231.600 239.552 M234.396 242.142 C 235.709 243.846,243.662 248.411,245.291 248.395 C 245.571 248.392,244.445 247.799,242.789 247.075 C 239.869 245.800,236.841 243.965,234.812 242.240 C 234.031 241.576,233.944 241.555,234.396 242.142 M158.000 246.638 C 157.010 247.163,156.420 247.594,156.688 247.596 C 157.108 247.599,159.884 246.212,160.367 245.757 C 160.812 245.337,159.612 245.784,158.000 246.638 M83.353 247.886 C 83.794 248.327,86.551 249.190,87.400 249.153 C 87.928 249.130,87.792 249.008,87.000 248.796 C 86.340 248.618,85.191 248.282,84.446 248.049 C 83.701 247.816,83.209 247.742,83.353 247.886 M154.200 248.212 C 153.320 248.529,152.240 248.805,151.800 248.826 C 151.292 248.849,151.199 248.942,151.546 249.080 C 152.123 249.310,155.135 248.492,155.780 247.930 C 156.281 247.495,156.099 247.527,154.200 248.212 M246.400 248.756 C 246.730 248.944,247.720 249.208,248.600 249.342 C 249.609 249.497,249.905 249.464,249.400 249.254 C 248.229 248.766,245.674 248.342,246.400 248.756 M312.600 248.800 C 311.493 249.082,311.477 249.109,312.400 249.147 C 312.950 249.169,313.670 249.013,314.000 248.800 C 314.681 248.360,314.329 248.360,312.600 248.800 M119.800 249.600 L 89.800 249.808 119.600 249.876 C 135.990 249.913,149.760 249.789,150.200 249.600 C 150.640 249.411,150.730 249.287,150.400 249.324 C 150.070 249.362,136.300 249.486,119.800 249.600 M265.330 249.900 C 273.651 249.960,287.151 249.960,295.330 249.900 C 303.508 249.839,296.700 249.790,280.200 249.790 C 263.700 249.790,257.008 249.839,265.330 249.900 " stroke="none" fill="#fce4cb" fill-rule="evenodd"></path></g></svg>